<svg xmlns="http://www.w3.org/2000/svg" width="842" height="1191" viewBox="0 0 842 1191" version="1.1">
	<rect x="0" y="0" width="100%" height="100%" fill="#ffffff"></rect>
	<path fill-opacity="0.251" d="M 0 595.501 L 0 1191.002 421.250 1190.751 L 842.500 1190.500 842.751 595.250 L 843.002 -0 421.501 -0 L 0 0 0 595.501 M 0.497 596 C 0.497 923.525, 0.611 1057.512, 0.750 893.750 C 0.889 729.987, 0.889 462.012, 0.750 298.250 C 0.611 134.487, 0.497 268.475, 0.497 596 M 375.310 110.518 C 370.465 113.003, 363.575 117.535, 360 120.590 C 346.945 131.747, 336.547 136.390, 314.500 140.908 C 294.823 144.941, 287.179 147.345, 281.322 151.343 C 275.861 155.070, 270.978 161.692, 268.506 168.725 C 261.864 187.619, 260.495 189.699, 250.869 195.506 C 246.563 198.104, 245.140 201.989, 246.920 206.286 C 250.562 215.082, 249.203 218.565, 239.001 226.580 C 224.841 237.705, 221.882 247.970, 232.821 248.015 C 239.140 248.042, 239.363 249.184, 233.959 253.839 C 230.194 257.082, 229 258.791, 229 260.933 C 229 264.549, 230.413 265.651, 236.139 266.503 L 240.778 267.194 233.491 282.347 C 229.483 290.681, 223.713 303.850, 220.668 311.612 C 217.623 319.374, 213.115 329.724, 210.651 334.612 C 205.051 345.721, 204.244 349.606, 206.537 354.437 C 207.485 356.435, 209.049 358.491, 210.013 359.007 C 211.098 359.587, 212.586 362.982, 213.915 367.908 C 215.097 372.288, 216.949 378.446, 218.032 381.592 C 220.784 389.593, 220.553 391.419, 215.910 398.373 C 212.529 403.436, 211.914 405.084, 212.367 407.873 C 212.668 409.729, 213.685 412.099, 214.627 413.140 C 216.247 414.930, 216.227 415.259, 214.252 419.266 C 209.420 429.069, 209.045 437.779, 213.066 446.877 C 214.130 449.285, 215 452.565, 215 454.167 C 215 458.655, 218.412 464.331, 224.103 469.309 L 229.276 473.834 227.138 476.552 C 224.078 480.441, 224.280 486.007, 227.601 489.328 L 230.201 491.929 228.101 494.599 C 224.084 499.705, 225.099 502.301, 234.842 511.842 C 244.922 521.711, 245.393 522.714, 254.629 554 C 259.478 570.426, 259.500 570.565, 259.491 585 C 259.482 601.515, 254.840 644.746, 252.466 650.426 C 250.278 655.664, 250.589 656.700, 254.571 657.447 C 256.535 657.816, 258.684 658.325, 259.347 658.580 C 261.890 659.556, 264.164 649.298, 267.124 623.500 C 271.135 588.549, 271.475 582.675, 270.053 572.952 C 268.759 564.100, 257.315 525.503, 253.760 518 C 252.588 515.525, 248.566 510.420, 244.822 506.655 L 238.017 499.810 242.745 495.529 C 247.090 491.595, 247.393 491.023, 246.487 488.464 C 245.782 486.476, 244.286 485.239, 241.250 484.134 C 236.488 482.400, 236.368 482.122, 238.563 477.877 C 241.096 472.980, 239.607 469.316, 232.312 462.500 C 226.385 456.962, 225.828 456.077, 225.078 451 C 224.631 447.975, 223.531 443.827, 222.633 441.782 C 220.100 436.015, 220.545 430.068, 224 423.500 C 227.491 416.864, 227.775 412.898, 225.037 409.052 L 223.073 406.294 225.970 402.356 C 227.563 400.190, 229.373 396.406, 229.992 393.947 C 231.270 388.871, 231.081 387.878, 225.194 368.784 C 221.336 356.268, 218.902 351, 216.977 351 C 214.920 351, 216.180 346.606, 220.980 337.041 C 223.718 331.583, 228.489 320.679, 231.581 312.809 C 234.673 304.939, 240.532 291.730, 244.601 283.456 C 252.905 266.573, 253.537 263.329, 249.293 259.395 L 246.585 256.886 251.793 252.099 C 258.676 245.771, 258.722 241.928, 251.936 239.982 C 250.054 239.442, 247.048 239, 245.257 239 C 243.465 239, 242.031 238.662, 242.069 238.250 C 242.107 237.838, 244.839 235.322, 248.139 232.660 C 259.208 223.730, 261.990 215.505, 257.547 204.840 C 257.057 203.664, 257.491 202.979, 259.038 202.488 C 265.834 200.331, 272.360 190.651, 277.483 175.127 C 282.154 160.974, 287.119 157.629, 311.070 152.502 C 338.394 146.653, 348.646 142.709, 360.832 133.359 C 377.257 120.756, 379 119.699, 379 122.345 C 379 123.085, 379.854 124.462, 380.897 125.407 C 382.609 126.956, 383.803 127.014, 393.147 126.008 C 398.841 125.395, 409.234 124.013, 416.243 122.937 C 435.272 120.017, 454.503 118.018, 463.500 118.027 C 479.493 118.042, 494.122 123.277, 505.401 133.021 C 508.646 135.825, 513.596 139.278, 516.401 140.694 C 522.955 144.004, 551.481 159.588, 555.817 162.227 C 557.955 163.528, 559.953 166.068, 561.437 169.373 C 563.257 173.425, 569.011 179.779, 588.870 199.671 C 602.692 213.515, 614 225.553, 614 226.421 C 614 227.290, 613.100 228.900, 612 230 C 610.900 231.100, 610 232.693, 610 233.540 C 610 235.302, 613.367 242.231, 616.131 246.154 C 618.542 249.578, 618.488 251.422, 615.872 254.960 C 614.407 256.941, 613.771 259.213, 613.832 262.249 C 613.937 267.511, 614.183 268.190, 621.445 283.273 C 624.563 289.748, 627.717 297.930, 628.455 301.454 C 629.384 305.894, 630.826 309.145, 633.148 312.033 L 636.500 316.203 637.035 329.851 C 637.637 345.233, 638.881 348.780, 647.078 358.500 C 655.730 368.760, 660.078 382.615, 660.259 400.500 C 660.314 406, 659.768 412.975, 659.046 416 C 657.776 421.319, 652.587 434, 651.680 434 C 651.435 434, 650.062 431.525, 648.630 428.500 C 646.397 423.784, 645.632 423.001, 643.263 423.007 C 638.348 423.018, 634.990 426.202, 632.614 433.102 C 630.527 439.163, 630.234 439.500, 625.614 441.153 C 616.582 444.385, 614.553 447.848, 610.560 466.848 C 609.133 473.640, 607.487 480.090, 606.903 481.181 C 605.960 482.943, 605.653 483.002, 604.170 481.704 C 603.252 480.899, 601.003 479.483, 599.174 478.556 C 596.123 477.009, 595.647 477.001, 593.424 478.458 C 591.378 479.798, 591 480.849, 591 485.198 C 591 488.156, 592.114 493.575, 593.616 497.925 C 598.241 511.322, 596.052 521.672, 585.710 535.303 C 581.845 540.396, 578.895 543.068, 574.281 545.653 C 563.659 551.604, 560.942 556.860, 564.552 564.469 C 566.597 568.778, 582.233 583.945, 588.195 587.402 C 590.777 588.900, 599.327 592.591, 607.195 595.605 C 620.915 600.861, 652.628 614.611, 654.307 616.031 C 655.137 616.733, 636.778 630.968, 626.856 637.316 C 614.875 644.979, 611.373 654.085, 616.553 664.102 C 617.731 666.381, 617.719 668.503, 616.472 678.558 C 615.668 685.040, 615.120 690.428, 615.255 690.532 C 615.390 690.635, 617.809 690.980, 620.631 691.299 L 625.763 691.878 627.056 678.820 C 628.111 668.162, 628.112 665.187, 627.060 662.631 C 623.592 654.204, 624.494 651.767, 633.274 645.838 C 646.929 636.616, 663.051 623.802, 664.484 621.031 C 668.938 612.419, 665.632 609.259, 640.500 598.103 C 629.500 593.221, 615.325 587.303, 609 584.952 C 602.675 582.602, 595.250 579.227, 592.500 577.452 C 585.481 572.922, 573.563 560.581, 574.315 558.622 C 574.641 557.771, 577.573 555.730, 580.829 554.086 C 585.158 551.901, 588.093 549.404, 591.745 544.799 C 604.539 528.665, 608.214 517.161, 605.656 501.250 C 604.949 496.853, 605.059 496, 606.329 496 C 608.873 496, 613.720 491.210, 616.052 486.392 C 617.267 483.883, 619.538 475.681, 621.098 468.165 C 624 454.189, 625.624 451.006, 629.861 450.996 C 632.930 450.989, 637.914 447.089, 639.947 443.104 L 641.975 439.129 644.911 442.064 C 648.936 446.090, 654.552 446.169, 658.154 442.250 C 670.765 428.531, 674.624 398.408, 666.986 373.311 C 664.411 364.849, 662.136 360.656, 655.558 352.249 C 648.233 342.888, 646.660 338.495, 647.488 329.716 C 648.306 321.040, 646.746 313.568, 642.825 307.385 C 641.128 304.709, 638.925 299.582, 637.930 295.991 C 636.935 292.399, 633.396 283.845, 630.065 276.981 C 626.734 270.116, 624.007 263.919, 624.005 263.210 C 624.002 262.500, 624.934 260.656, 626.075 259.113 C 627.216 257.570, 628.397 254.461, 628.699 252.205 C 629.153 248.820, 628.684 247.101, 626.008 242.361 C 622.863 236.787, 622.802 236.461, 623.959 231.291 C 624.615 228.362, 624.847 224.580, 624.475 222.888 C 623.980 220.632, 616.846 212.781, 597.742 193.467 C 579.017 174.536, 571.331 166.094, 570.427 163.466 C 569.736 161.456, 568.129 158.701, 566.855 157.346 C 564.814 155.173, 549.721 146.478, 524.500 132.945 C 520.100 130.584, 514.502 126.912, 512.061 124.784 C 505.527 119.089, 497.510 114.511, 488.490 111.324 C 480.676 108.562, 480.048 108.502, 460 108.587 C 442.334 108.662, 436.620 109.111, 418.665 111.837 C 407.206 113.577, 397.644 115, 397.415 115 C 397.187 115, 397 114.161, 397 113.135 C 397 112.109, 396.067 110.084, 394.927 108.635 C 391.636 104.450, 386.109 104.981, 375.310 110.518 M 341.410 219.250 C 339.043 221.113, 336.819 221.608, 328.494 222.128 C 312.009 223.158, 303.979 228.166, 297.172 241.666 C 289.481 256.916, 287.415 271.007, 289.525 293.817 C 291.259 312.556, 291.398 328.551, 289.911 338.136 C 289.312 341.997, 289.020 345.354, 289.263 345.596 C 289.506 345.839, 293.483 344.038, 298.102 341.593 C 309.931 335.333, 317.527 333, 326.075 333 C 332.208 333, 337.316 334.253, 362.356 341.901 C 396.548 352.343, 396.585 352.356, 397.871 354.760 C 399.104 357.062, 397.816 372.607, 396.133 375.752 C 394.793 378.256, 394.282 378.401, 380.782 380.114 C 371.277 381.320, 371.029 381.418, 369.532 384.575 C 368.689 386.350, 368 388.281, 368 388.866 C 368 390.593, 365.088 391.666, 354.416 393.872 C 338.494 397.161, 331.084 397.579, 325.628 395.496 C 320.842 393.668, 319.707 391.713, 322.750 390.538 C 323.712 390.167, 329.630 389.443, 335.899 388.930 C 348.820 387.872, 353.054 386.913, 357.880 383.948 L 361.261 381.871 358.880 380.185 C 357.058 378.895, 353.770 378.422, 344.843 378.168 C 330.635 377.764, 323.287 379.398, 313.940 385.040 C 310.332 387.218, 306.230 389, 304.825 389 C 301.200 389, 297.337 385.599, 296.005 381.234 C 295.379 379.180, 293.956 375.792, 292.844 373.705 C 289.926 368.231, 290.812 367.006, 297.719 366.967 C 300.898 366.949, 305.975 366.064, 309 365 C 313.146 363.541, 317.253 363.057, 325.685 363.033 C 341.600 362.986, 344.512 361.464, 339.901 355.602 C 335.928 350.550, 328.567 347.742, 317.927 347.220 C 305.864 346.627, 299.983 348.711, 297.597 354.422 C 295.544 359.335, 292.163 360.760, 287.190 358.807 L 283.359 357.302 280.196 369.901 C 276.950 382.828, 276.280 386.976, 273.400 412 C 270.793 434.642, 272.311 448.095, 280.169 472 C 282.291 478.454, 284.484 482.943, 287.008 486 C 289.051 488.475, 291.468 491.955, 292.379 493.733 C 294.407 497.695, 298.618 500, 303.828 500 C 309.450 500, 310.518 501.699, 308.890 508.053 C 307.389 513.908, 308.387 516.737, 313.221 520.327 C 317.086 523.197, 319.579 521.740, 326.475 512.576 C 336.186 499.674, 346.484 492.191, 361 487.492 C 372.187 483.871, 373.386 482.783, 372.564 477.003 C 370.594 463.153, 370.586 463.317, 373.279 461.553 C 376.024 459.754, 374.634 459.427, 392.750 466.126 C 397.775 467.984, 399.171 468.115, 403.820 467.164 C 410.694 465.758, 415.390 462.806, 417.362 458.650 C 418.228 456.825, 419.474 450.172, 420.132 443.867 C 421.153 434.066, 421.085 430.595, 419.661 419.951 C 417.638 404.835, 417.587 394.894, 419.460 380.827 C 421.123 368.335, 423.136 363.811, 429.538 358.176 C 435.098 353.282, 439.612 351.717, 455.975 349.013 C 462.836 347.879, 468.776 346.624, 469.174 346.225 C 469.573 345.826, 469.448 343.490, 468.896 341.033 C 467.592 335.229, 468.085 333.572, 473.072 326.984 C 482.968 313.911, 487.491 299.445, 486.830 282.984 C 486.479 274.227, 486.158 272.797, 484.042 270.545 C 481.263 267.586, 478.621 267.368, 472.968 269.629 C 468.080 271.585, 466.845 271.129, 460.310 264.958 C 452.093 257.199, 448.836 255.304, 438.023 251.987 C 424.748 247.916, 418.393 245.098, 411.216 240.099 C 407.543 237.541, 400.853 234.522, 392.500 231.651 C 385.350 229.194, 373.046 224.892, 365.158 222.092 C 349.120 216.398, 345.575 215.973, 341.410 219.250 M 486.077 340.589 C 484.385 342.013, 483 343.491, 483 343.873 C 483 344.256, 484.346 345.364, 485.992 346.336 C 488.832 348.014, 489.576 348.019, 500.742 346.429 C 507.209 345.508, 513.985 344.148, 515.801 343.407 C 518.695 342.226, 518.968 341.809, 518.016 340.030 C 517.004 338.140, 515.974 338, 503.042 338 C 489.559 338, 489.064 338.076, 486.077 340.589 M 453 384.913 C 449.975 385.236, 447.601 385.950, 447.725 386.500 C 447.848 387.050, 449.306 391.361, 450.965 396.080 C 454.131 405.086, 455.297 414.001, 453.398 414.676 C 452.791 414.892, 449.945 411.847, 447.072 407.909 C 440.765 399.264, 439.483 399.671, 439.536 410.303 C 439.579 418.889, 441.284 422.763, 447.549 428.500 C 450.702 431.388, 454.987 438.044, 462.958 452.434 C 469.031 463.398, 473.990 473.073, 473.978 473.934 C 473.966 474.795, 473.076 476.625, 472 478 C 468.042 483.061, 469.020 484.930, 482.039 497.176 C 496.762 511.025, 499.456 512.121, 495.500 502.654 C 493.017 496.712, 493.607 494.777, 501.024 484.537 C 515.720 464.247, 518.065 454.467, 514.419 428.682 C 513.282 420.642, 512.337 417.065, 511.056 415.951 C 510.077 415.099, 503.926 412.921, 497.388 411.111 C 474.865 404.876, 472.012 403.914, 469.492 401.711 C 467.130 399.644, 464.315 392.981, 465.820 393.016 C 466.194 393.024, 470.731 393.924, 475.902 395.016 C 487.038 397.366, 489 397.457, 489 395.620 C 489 394.031, 482.008 388.072, 477.300 385.648 C 473.997 383.947, 464.685 383.666, 453 384.913 M 651.011 410.750 C 651.043 415.902, 652.350 420, 653.961 420 C 655.474 420, 655.551 419.400, 654.662 414.500 C 654.043 411.083, 653.161 409, 652.333 409 C 651.600 409, 651.005 409.788, 651.011 410.750 M 432.526 441.950 C 430.331 446.194, 430.642 449.733, 433.455 452.545 C 436.474 455.565, 439.651 455.676, 442.642 452.866 C 444.819 450.821, 444.847 450.604, 443.302 447.616 C 438.691 438.701, 435.165 436.847, 432.526 441.950 M 348.649 462.097 C 342.173 469.663, 336.583 484.588, 339.093 487.612 C 339.727 488.375, 340.647 489, 341.138 489 C 342.112 489, 353.677 471.513, 356.963 465.073 C 359.908 459.300, 359.653 458, 355.578 458 C 352.809 458, 351.486 458.782, 348.649 462.097 M 370.500 539.003 C 366.100 539.385, 361.722 540.035, 360.770 540.448 C 357.460 541.884, 355 547.393, 355 553.368 C 355 556.466, 355.168 559, 355.374 559 C 355.580 559, 357.564 558.360, 359.783 557.577 C 364.541 555.898, 371.562 555.307, 402.711 553.967 C 415.476 553.417, 426.631 552.695, 427.498 552.363 C 428.365 552.030, 429.765 550.421, 430.610 548.788 C 432.014 546.073, 431.997 545.654, 430.414 543.905 C 427.758 540.970, 423.099 540.158, 402.500 539.041 C 382.273 537.944, 382.715 537.944, 370.500 539.003 M 233.500 669.082 C 212.110 671.256, 195.125 685.864, 189.411 707 C 187.248 715, 186.969 732.237, 188.877 740 C 192.075 753.016, 200.998 765.815, 211.613 772.612 C 232.446 785.952, 264.809 782.487, 282.006 765.075 C 287.539 759.473, 292.480 751.081, 293.531 745.500 C 294.062 742.680, 293.738 742.305, 288.119 739.250 C 284.831 737.462, 281.708 736, 281.179 736 C 280.650 736, 279.907 737.237, 279.528 738.750 C 278.428 743.138, 272.339 752.461, 268.032 756.352 C 265.854 758.320, 261.693 761.180, 258.786 762.708 C 253.984 765.231, 252.538 765.487, 243 765.493 C 234.016 765.499, 231.817 765.164, 227.769 763.170 C 219.961 759.324, 213.453 752.695, 209.364 744.421 C 206.075 737.767, 205.646 735.976, 205.219 727.103 C 204.826 718.933, 205.113 715.988, 206.863 710.224 C 212.073 693.073, 225.091 682.871, 241.902 682.766 C 255.180 682.683, 267.214 688.792, 274.435 699.283 L 278.371 705 284.685 705 L 291 705 291 687.500 L 291 670 284.500 670 L 278 670 278 675.098 L 278 680.196 274.750 678.027 C 263.523 670.535, 249.381 667.468, 233.500 669.082 M 306 676.500 L 306 683 313 683 L 320 683 320 724.500 L 320 766 313 766 L 306 766 306 772.500 L 306 779 326.500 779 L 347 779 347 772.500 L 347 766 340.480 766 L 333.960 766 334.230 744.888 L 334.500 723.776 340.849 719.937 C 349.395 714.771, 356.497 713.171, 360.863 715.429 C 362.636 716.346, 364.517 718.229, 365.043 719.613 C 365.571 721.002, 366 734.880, 366 750.565 L 366 779 380 779 L 394 779 394 772.500 L 394 766 387.500 766 L 381 766 380.992 745.250 C 380.984 721.444, 379.945 712.927, 376.497 708.407 C 369.597 699.361, 353.404 699.247, 340.320 708.154 C 338.021 709.720, 335.658 711, 335.070 711 C 334.345 711, 334 704.392, 334 690.500 L 334 670 320 670 L 306 670 306 676.500 M 574 676.500 L 574 683 580.500 683 L 587 683 587 724.500 L 587 766 580.500 766 L 574 766 574 772.500 L 574 779 594.500 779 L 615 779 615 772.500 L 615 766 608.500 766 L 602 766 602 753.260 L 602 740.519 621.259 759.760 L 640.519 779 650.259 779 L 660 779 660 772.500 L 660 766 653.236 766 L 646.472 766 633.073 752.573 L 619.673 739.146 622.587 736.697 C 624.189 735.350, 630.675 729.925, 637 724.642 L 648.500 715.036 654.250 715.018 L 660 715 660 709 L 660 703 639 703 L 618 703 618 709 L 618 715 624.083 715 C 627.429 715, 630.017 715.390, 629.833 715.868 C 629.650 716.345, 623.425 721.556, 616 727.447 L 602.500 738.159 602.237 704.080 L 601.974 670 587.987 670 L 574 670 574 676.500 M 520.384 702.361 C 513.380 704.130, 507.328 707.873, 501.645 713.949 C 495.926 720.063, 493.481 725.229, 492.041 734.243 C 489.155 752.312, 498.565 771.276, 513.949 778.394 C 517.742 780.149, 520.415 780.500, 530 780.500 C 540.291 780.500, 542.078 780.228, 547 777.910 C 550.025 776.485, 553.927 774.113, 555.670 772.638 C 559.020 769.805, 565.012 761.402, 564.983 759.579 C 564.959 758.071, 554.070 753.496, 553.142 754.603 C 552.728 755.096, 551.117 757.236, 549.562 759.358 C 545.743 764.567, 538.299 767.977, 530.718 767.990 C 523.732 768.002, 519.556 766.381, 515.290 761.999 C 502.673 749.041, 505.220 724.715, 519.976 717.250 C 531.726 711.306, 547.360 717.618, 549.697 729.250 C 550.231 731.905, 550.471 732, 556.625 732 L 563 732 563 717.500 L 563 703 556.500 703 C 550.233 703, 550 703.090, 550 705.500 C 550 708.490, 549.608 708.556, 546.154 706.153 C 540.098 701.938, 528.697 700.261, 520.384 702.361 M 399 709.500 L 399 716 404.500 716 L 410 716 410 738.451 C 410 762.227, 410.851 769.270, 414.246 773.585 C 421.029 782.208, 439.353 782.006, 451.762 773.170 C 453.438 771.976, 455.077 771, 455.404 771 C 455.732 771, 456 772.800, 456 775 L 456 779 470 779 L 484 779 484 772.500 L 484 766 477.500 766 L 471 766 471 734.500 L 471 703 457 703 L 443 703 443 709.500 L 443 716 449.500 716 L 456 716 456 736.949 L 456 757.898 452.750 760.335 C 441.606 768.690, 429.399 770.172, 425.747 763.613 C 424.947 762.177, 424.444 752.126, 424.176 732.250 L 423.781 703 411.391 703 L 399 703 399 709.500 M 587.445 804.068 C 572.149 806.083, 562.555 815.998, 561.289 831.098 L 560.710 838 567.726 838 L 574.742 838 575.436 832.771 C 576.361 825.798, 579.377 820.718, 584.202 818.007 C 587.462 816.175, 589.308 815.850, 594.573 816.186 C 601.694 816.639, 604.973 818.456, 608.837 824.092 C 610.840 827.015, 611.121 828.457, 610.806 834.218 C 610.413 841.396, 608.817 844.554, 603.621 848.434 C 601.507 850.012, 598.983 850.577, 592.785 850.858 L 584.705 851.225 585.352 863.270 C 585.709 869.894, 586 877.493, 586 880.157 L 586 885 589.906 885 L 593.812 885 594.372 880.250 C 594.680 877.638, 595.216 872.688, 595.564 869.250 L 596.196 863 600.848 862.978 C 609.525 862.937, 618.876 856.898, 623.267 848.500 C 626.477 842.361, 626.856 829.261, 624.040 821.792 C 619.138 808.790, 604.696 801.796, 587.445 804.068 M 211 811.500 L 211 818 216.941 818 C 220.209 818, 223.121 818.386, 223.413 818.859 C 223.920 819.680, 230.236 841.282, 244.724 891.750 L 251.398 915 259.080 915 L 266.763 915 267.954 910.250 C 268.609 907.638, 272.203 894.700, 275.940 881.500 C 279.677 868.300, 284.466 851.313, 286.583 843.750 C 288.699 836.188, 290.683 830, 290.991 830 C 291.300 830, 296.974 849.013, 303.600 872.250 L 315.647 914.500 323.441 914.500 L 331.235 914.500 333.030 908.500 C 334.017 905.200, 339.172 886.975, 344.484 868 C 349.796 849.025, 355.138 830.125, 356.355 826 L 358.566 818.500 364.783 818.202 L 371 817.905 371 811.452 L 371 805 351.500 805 L 332 805 332 811.500 L 332 818 338 818 C 341.874 818, 344 818.410, 344 819.156 C 344 821.316, 324.613 889, 323.994 889 C 323.466 889, 304 820.526, 304 818.670 C 304 818.302, 306.925 818, 310.500 818 L 317 818 317 811.500 L 317 805 292 805 L 267 805 267 811.500 L 267 818 272.941 818 C 276.209 818, 279.073 818.337, 279.306 818.750 C 279.727 819.495, 260.661 888.673, 259.796 889.538 C 259.547 889.786, 257.910 884.929, 256.158 878.745 C 254.406 872.560, 249.836 856.700, 246.001 843.500 C 242.167 830.300, 239.023 819.163, 239.015 818.750 C 239.007 818.337, 241.925 818, 245.500 818 L 252 818 252 811.500 L 252 805 231.500 805 L 211 805 211 811.500 M 375 811.454 L 375 817.909 381.750 818.204 L 388.500 818.500 388.761 859.750 L 389.022 901 382.011 901 L 375 901 375 907.500 L 375 914 395.500 914 L 416 914 416 907.500 L 416 901 409.500 901 L 403 901 403 880.077 L 403 859.154 408.750 855.543 C 411.913 853.557, 416.906 851.228, 419.846 850.367 C 424.483 849.010, 425.676 848.986, 428.836 850.188 C 434.810 852.462, 434.969 853.370, 434.985 885.250 L 435 914 448.500 914 L 462 914 462 907.500 L 462 901 456.138 901 L 450.275 901 449.797 876.250 C 449.371 854.170, 449.100 851.005, 447.286 846.908 C 442.396 835.865, 428.354 833.197, 413.744 840.535 C 411.014 841.906, 407.592 843.963, 406.140 845.106 L 403.500 847.183 403.230 826.092 L 402.960 805 388.980 805 L 375 805 375 811.454 M 501.900 836.957 C 490.296 839.061, 478.451 848.475, 473.225 859.747 C 470.864 864.839, 470.560 866.707, 470.576 876 C 470.599 889.069, 472.826 895.460, 480.149 903.473 C 487.493 911.508, 495.676 915.273, 506.971 915.813 C 531.782 916.999, 549.049 901.183, 549.344 877 C 549.516 862.932, 544.574 852.235, 534.274 844.379 C 526.061 838.114, 512.574 835.022, 501.900 836.957 M 504.500 850.935 C 496.918 852.781, 489.339 859.539, 486.910 866.619 C 484.740 872.946, 485.265 881.716, 488.199 888.124 C 495.111 903.221, 515.050 906.796, 526.801 895.045 C 531.717 890.129, 533.292 886.276, 533.785 877.956 C 534.157 871.686, 533.852 869.526, 531.975 865.163 C 529.195 858.701, 523.323 853.471, 516.612 851.477 C 511.262 849.889, 509.181 849.796, 504.500 850.935 M 581 904.500 L 581 914 590.500 914 L 600 914 600 904.500 L 600 895 590.500 895 L 581 895 581 904.500 " stroke="black" fill="none" fill-rule="evenodd"></path>
	<path fill-opacity="0.335" d="M 0 595.501 L 0 1191.002 421.250 1190.751 L 842.500 1190.500 842.751 595.250 L 843.002 -0 421.501 -0 L 0 0 0 595.501 M 0.497 596 C 0.497 923.525, 0.611 1057.512, 0.750 893.750 C 0.889 729.987, 0.889 462.012, 0.750 298.250 C 0.611 134.487, 0.497 268.475, 0.497 596 M 376.333 109.625 C 368.969 113.531, 364.594 116.520, 356.024 123.501 C 345.435 132.127, 334.987 136.434, 314.620 140.570 C 289.882 145.593, 282.290 148.616, 275.482 156.152 C 272.025 159.978, 267.031 169.111, 267.010 171.646 C 266.991 173.792, 261.151 187.176, 259.378 189.135 C 258.406 190.208, 255.502 192.235, 252.923 193.638 C 246.047 197.381, 244.341 202.454, 247.635 209.361 C 249.900 214.111, 248.835 217.234, 243.234 222.261 C 233.832 230.699, 226.944 238.017, 225.956 240.616 C 224.575 244.249, 227.014 247.995, 230.773 248.014 C 232.273 248.021, 234.525 248.302, 235.778 248.638 C 237.947 249.219, 237.816 249.502, 233.028 254.564 C 230.263 257.488, 228 260.582, 228 261.440 C 228 264.377, 231.775 267, 236 267 C 238.200 267, 240 267.217, 240 267.482 C 240 267.748, 237.091 273.972, 233.535 281.315 C 229.980 288.658, 224.625 300.959, 221.636 308.650 C 218.647 316.342, 213.941 327.139, 211.178 332.644 C 203.770 347.408, 203.368 351.932, 208.904 358.238 C 210.855 360.460, 212.768 364.884, 214.859 372.006 C 216.552 377.778, 218.481 384.198, 219.144 386.272 C 220.462 390.397, 219.628 392.833, 214.477 399.898 C 211.529 403.942, 211.314 408.373, 213.865 412.500 C 215.701 415.470, 215.694 415.551, 213.212 420.500 C 209.899 427.106, 209.158 436.788, 211.490 443 C 212.420 445.475, 213.633 449.300, 214.186 451.500 C 214.740 453.700, 215.641 457.266, 216.189 459.425 C 216.879 462.143, 218.881 464.980, 222.696 468.646 L 228.207 473.941 226.167 478.220 C 223.706 483.385, 224.233 487.251, 227.778 490.040 L 230.315 492.036 228.158 494.332 C 226.773 495.806, 226 497.918, 226 500.225 C 226 503.428, 226.799 504.535, 233.320 510.372 C 237.346 513.975, 241.810 519.078, 243.239 521.712 C 246.279 527.315, 257.453 563.197, 259.097 572.635 C 260.522 580.818, 259.929 592.352, 256.557 622 C 254.856 636.967, 253.167 647.454, 251.907 650.882 C 250.820 653.841, 250.058 656.362, 250.215 656.484 C 250.973 657.072, 260.295 659.038, 260.648 658.685 C 262.480 656.853, 265.057 644.800, 266.460 631.500 C 267.389 622.700, 268.790 610.414, 269.574 604.199 C 271.245 590.956, 271.387 578.977, 269.976 570.284 C 268.537 561.418, 256.351 522.416, 253.226 516.674 C 250.465 511.602, 244.208 504.488, 240.027 501.668 L 237.555 500 240.027 498.280 C 249.390 491.766, 249.278 485.802, 239.750 483.459 C 236.519 482.665, 236.547 482.777, 238.606 478.796 C 241.426 473.341, 239.952 469.386, 232.526 462.489 C 226.919 457.280, 225.999 455.939, 225.995 452.963 C 225.993 451.058, 224.879 446.800, 223.519 443.500 C 220.257 435.582, 220.356 431.551, 223.987 424.391 C 227.464 417.535, 227.836 412.250, 225.080 408.861 C 223.173 406.516, 223.177 406.478, 225.631 403.250 C 228.880 398.976, 231 393.778, 231 390.084 C 231 388.444, 229.918 383.593, 228.596 379.302 C 227.273 375.011, 225.156 367.923, 223.891 363.552 C 222.443 358.548, 220.502 354.364, 218.651 352.256 L 215.712 348.908 221.755 336.204 C 225.078 329.217, 230.375 316.975, 233.525 309 C 236.675 301.025, 242.120 288.769, 245.626 281.764 C 253.012 267.007, 253.754 262.525, 249.379 259.084 L 246.759 257.022 251.879 252.419 C 259.654 245.428, 258.846 240.368, 249.789 239.328 C 242.410 238.481, 242.417 238.360, 250.329 230.744 C 259.447 221.966, 261.053 218.051, 259.187 209.155 C 258.475 205.760, 258.374 203.375, 258.935 203.188 C 259.450 203.017, 261.687 201.561, 263.907 199.953 C 268.855 196.368, 273.217 189.012, 276.508 178.703 C 282.220 160.811, 285.896 158.096, 312 152.494 C 339.943 146.498, 349.881 142.548, 362.509 132.422 C 370.138 126.304, 377.531 121, 378.430 121 C 378.744 121, 379 121.643, 379 122.429 C 379 123.214, 379.753 124.610, 380.673 125.530 C 382.710 127.567, 387.922 127.206, 417.500 122.980 C 444.133 119.174, 461.998 117.643, 470.270 118.458 C 483.324 119.744, 494.620 124.450, 504.662 132.786 C 507.873 135.451, 519.050 142.264, 529.500 147.927 C 558.516 163.649, 559.470 164.286, 560.845 168.878 C 561.786 172.019, 566.934 177.732, 586.327 197.157 C 599.693 210.546, 611.450 222.754, 612.454 224.287 C 614.240 227.016, 614.234 227.122, 612.139 229.352 C 608.685 233.028, 609.439 236.664, 615.511 245.612 C 618.580 250.134, 618.621 251.709, 615.750 254.768 C 613.986 256.647, 613.511 258.303, 613.550 262.433 C 613.592 266.827, 614.712 270.006, 620.303 281.600 C 624.245 289.773, 627.589 298.291, 628.420 302.274 C 629.414 307.032, 630.721 310.057, 632.816 312.443 C 636.333 316.449, 637.093 320.282, 636.792 332.500 C 636.598 340.339, 636.900 342.210, 639.132 347 C 640.541 350.025, 643.400 354.525, 645.485 357 C 655.489 368.873, 659.038 378.959, 659.736 397.500 C 660.120 407.704, 659.863 411.883, 658.539 416.929 C 656.930 423.063, 652.545 433, 651.448 433 C 651.162 433, 650.074 431.007, 649.030 428.570 C 646.516 422.705, 644.056 421.405, 639.534 423.551 C 635.191 425.612, 634.647 426.329, 632.548 432.763 C 630.530 438.948, 628.757 441, 625.431 441 C 624.056 441, 621.299 442.542, 619.062 444.563 C 614.676 448.525, 613.043 452.623, 610.520 466 C 609.638 470.675, 608.220 476.419, 607.370 478.765 L 605.823 483.029 602.835 480.514 C 601.191 479.131, 598.797 477.736, 597.516 477.415 C 594.607 476.685, 591.029 478.511, 590.911 480.785 C 590.593 486.933, 591.448 493.036, 593.243 497.425 C 594.666 500.902, 595.348 504.876, 595.410 510.049 C 595.491 516.843, 595.129 518.344, 591.797 525.049 C 586.911 534.878, 580.378 542.148, 572.804 546.185 C 565.983 549.821, 563.007 553.713, 563.007 559 C 563.007 563.611, 565.816 568.023, 573.892 576.099 C 583.068 585.275, 590.591 589.842, 605.621 595.364 C 621.695 601.268, 653.156 615.241, 653.291 616.535 C 653.411 617.693, 641.709 626.866, 630.129 634.691 C 620.532 641.177, 617.376 644.183, 615.401 648.718 C 613.536 653.001, 613.627 657.487, 615.695 663.256 C 617.220 667.512, 617.269 669.184, 616.163 679.136 C 615.482 685.254, 615.055 690.375, 615.213 690.517 C 615.371 690.658, 617.862 691.092, 620.750 691.481 C 625.431 692.111, 626.005 691.988, 626.048 690.344 C 626.074 689.330, 626.691 683.550, 627.419 677.500 C 628.559 668.018, 628.540 665.948, 627.276 662.500 C 624.654 655.347, 624.651 653.659, 627.253 650.982 C 628.579 649.617, 635.427 644.465, 642.471 639.532 C 659.490 627.616, 666 621.453, 666 617.260 C 666 613.110, 664.243 609.389, 661.405 607.530 C 657.657 605.074, 623.474 590.157, 609.696 584.965 C 602.654 582.311, 594.693 578.728, 592.004 577.003 C 586.537 573.494, 573.703 560.391, 574.219 558.843 C 574.402 558.294, 577.228 556.417, 580.499 554.672 C 591.444 548.834, 603.609 531.178, 606.110 517.500 C 607.149 511.817, 606.953 506.588, 605.426 499.250 C 604.828 496.374, 605 496, 606.920 496 C 612.525 496, 617.203 487.184, 621.012 469.446 C 622.588 462.104, 624.340 455.233, 624.906 454.176 C 625.486 453.093, 627.862 451.769, 630.350 451.142 C 634.882 450.001, 641 444.442, 641 441.465 C 641 439.381, 642.015 439.640, 644.981 442.482 C 648.605 445.954, 652.765 446.536, 656.650 444.114 C 660.793 441.532, 667.289 428.584, 669.558 418.384 C 671.638 409.034, 671.093 386.975, 668.548 377.500 C 666.213 368.806, 660.970 358.316, 655.804 352 C 648.239 342.752, 647.573 340.873, 647.834 329.500 C 648.091 318.271, 646.633 311.830, 642.652 306.610 C 641.268 304.796, 639.409 300.428, 638.522 296.905 C 637.634 293.382, 633.945 284.309, 630.323 276.743 L 623.738 262.986 626.369 259.189 C 630.438 253.318, 629.623 244.925, 624.403 238.948 C 623.308 237.693, 623.263 236.236, 624.171 231.354 C 624.789 228.031, 625.014 224.193, 624.671 222.826 C 623.935 219.892, 597.677 191.710, 582.594 177.664 C 574.698 170.312, 571.770 166.903, 570.999 164.164 C 569.054 157.254, 567.023 155.766, 538.036 140.011 C 524.894 132.867, 513.537 125.971, 510.666 123.389 C 507.966 120.962, 502.100 117.187, 497.629 114.998 C 482.985 107.831, 471.401 106.117, 450 107.949 C 438.597 108.925, 409.226 112.724, 399.750 114.449 C 397.734 114.816, 397 114.543, 397 113.425 C 397 112.587, 396.313 110.573, 395.474 108.950 C 394.071 106.237, 393.516 106, 388.557 106 C 384.284 106, 381.749 106.752, 376.333 109.625 M 341.686 218.986 C 336.879 221.551, 334.945 222, 328.700 222 C 317.891 222, 311.757 224.171, 305.294 230.283 C 298.994 236.242, 294.012 245.723, 291.007 257.473 C 288.042 269.066, 287.652 278.625, 289.415 296.500 C 291.295 315.563, 291.403 325.631, 289.848 336.763 C 289.213 341.308, 288.924 345.257, 289.205 345.539 C 289.487 345.820, 294.169 343.832, 299.609 341.120 C 321.622 330.147, 323.707 330.194, 363.633 342.561 C 385.076 349.203, 395.165 352.790, 396.677 354.311 C 398.743 356.389, 398.806 356.952, 397.923 365.425 C 397.351 370.917, 396.400 375.005, 395.453 376.052 C 394.400 377.215, 390.254 378.307, 382.349 379.501 L 370.785 381.250 368.782 386.070 C 366.791 390.861, 366.737 390.899, 359.919 392.450 C 356.146 393.308, 348.314 394.774, 342.513 395.707 C 332.384 397.336, 331.751 397.329, 326.484 395.539 C 316.500 392.145, 319.435 390.393, 337.500 388.962 C 349.823 387.985, 353.459 387.115, 358.665 383.898 L 362.259 381.677 358.468 379.731 C 355.113 378.010, 353.051 377.831, 340.588 378.175 C 327.865 378.527, 325.938 378.825, 320.698 381.251 C 317.506 382.728, 313.773 384.820, 312.401 385.900 C 306.605 390.458, 299.349 388.990, 297.067 382.797 C 296.399 380.984, 294.732 377.069, 293.362 374.098 C 290.389 367.646, 290.884 367.038, 299.128 367.015 C 302.223 367.007, 306.498 366.240, 308.628 365.311 C 311.498 364.058, 315.742 363.580, 325.034 363.461 C 342.312 363.241, 345.754 360.907, 338.812 354.120 C 333.896 349.314, 326.021 346.723, 316 346.614 C 305.604 346.501, 300.526 348.584, 297.523 354.193 C 294.838 359.206, 291.945 360.422, 287.307 358.484 C 285.319 357.653, 283.553 357.114, 283.381 357.286 C 282.793 357.874, 278.004 376.499, 277.027 382 C 274.970 393.579, 272 422.559, 272 431.051 C 272 448.905, 280.102 478.873, 286.954 486.368 C 289.032 488.641, 291.465 491.935, 292.360 493.689 C 294.588 498.052, 297.697 499.997, 302.473 500.015 C 308.769 500.039, 309.242 500.712, 308.512 508.605 C 307.889 515.334, 307.948 515.578, 310.987 518.750 C 316.312 524.307, 318.083 523.450, 329.033 510.023 C 338.260 498.708, 347.983 491.832, 360.194 487.985 C 371.688 484.364, 373 483.500, 373 479.551 C 373 477.682, 372.474 473.876, 371.832 471.093 C 370.931 467.190, 370.939 465.428, 371.868 463.390 C 372.956 461.002, 373.478 460.796, 377.286 461.246 C 379.604 461.520, 384.200 463.021, 387.500 464.582 C 398.836 469.944, 412.437 467.611, 417.136 459.500 C 421.067 452.712, 421.753 435.109, 419 411.611 C 417.540 399.146, 418.856 378.771, 421.688 370.003 C 425.528 358.113, 433.644 353.108, 455.069 349.419 C 462.939 348.064, 469.547 346.787, 469.753 346.580 C 469.959 346.374, 469.718 343.949, 469.217 341.192 C 468.133 335.229, 469.063 332.506, 474.819 324.797 C 483.385 313.325, 487 301.883, 487 286.238 C 487 270.045, 484.095 266.005, 474.560 268.936 C 467.603 271.074, 466.328 270.644, 459.185 263.754 C 451.262 256.110, 449.690 255.246, 436.016 251.029 C 424.444 247.461, 417.795 244.402, 411 239.521 C 407.936 237.320, 397.727 233.234, 379 226.713 C 363.875 221.446, 350.563 216.875, 349.417 216.554 C 348.115 216.190, 345.219 217.101, 341.686 218.986 M 485.212 341.281 L 482.032 344.562 485.589 346.478 C 489.105 348.371, 489.303 348.369, 502.689 346.296 C 516.994 344.079, 520.516 342.532, 518.042 339.550 C 516.990 338.283, 514.164 338, 502.574 338 L 488.392 338 485.212 341.281 M 455.675 384.276 C 448.302 385.146, 446.940 385.580, 447.396 386.909 C 447.696 387.784, 449.255 392.325, 450.859 397 C 452.464 401.675, 454.057 407.413, 454.400 409.750 C 454.932 413.378, 454.766 414, 453.262 413.998 C 452.276 413.997, 450.309 412.111, 448.795 409.715 C 445.555 404.585, 441.281 400.386, 440.299 401.368 C 439.909 401.758, 439.404 405.004, 439.176 408.582 C 438.654 416.782, 440.750 422.638, 445.862 427.257 C 450.908 431.815, 452.215 433.788, 463.368 453.679 C 468.833 463.427, 473 472.010, 473 473.521 C 473 474.986, 472.100 477.329, 471 478.727 C 469.900 480.126, 469 482.055, 469 483.015 C 469 484.987, 493.371 509, 495.372 509 C 497.706 509, 497.794 507.963, 495.884 502.938 C 494.848 500.210, 494 497.258, 494 496.378 C 494 495.497, 497.605 489.696, 502.011 483.485 C 513.446 467.365, 515.968 460.534, 515.988 445.624 C 516.003 434.402, 513.352 418.070, 511.148 415.811 C 510.242 414.882, 501.175 411.822, 491 409.011 C 471.242 403.551, 468.452 402.318, 466.955 398.383 C 464.980 393.186, 465.234 393.116, 477.244 395.549 C 490.128 398.160, 491.867 397.539, 486.710 392.171 C 479.104 384.254, 471.738 382.380, 455.675 384.276 M 651.857 408.778 C 650.925 408.964, 650.361 409.839, 650.552 410.803 C 650.738 411.736, 651.160 414.188, 651.490 416.250 C 651.949 419.114, 652.557 420, 654.064 420 C 655.600 420, 655.922 419.500, 655.515 417.750 C 655.227 416.512, 654.656 413.914, 654.246 411.975 C 653.712 409.451, 653.034 408.543, 651.857 408.778 M 432.558 441.888 C 430.318 446.220, 430.598 450.274, 433.314 452.826 C 436.207 455.543, 440.382 455.618, 443 453 C 445.624 450.376, 445.574 450.053, 441.658 444.359 C 437.569 438.412, 434.751 437.647, 432.558 441.888 M 350.095 460.573 C 343.404 466.204, 336.176 486.702, 340.321 488.293 C 341.449 488.726, 343.469 486.399, 347.783 479.693 C 356.825 465.641, 359.257 461.112, 358.634 459.488 C 357.750 457.184, 353.477 457.727, 350.095 460.573 M 366.133 538.854 C 361.844 539.432, 360.188 540.225, 357.883 542.805 C 355.334 545.658, 355 546.782, 355 552.516 C 355 556.082, 355.113 558.995, 355.250 558.989 C 355.387 558.983, 357.740 558.299, 360.479 557.468 C 363.946 556.416, 373.963 555.646, 393.479 554.930 C 409.234 554.353, 423.237 553.377, 425.468 552.701 C 427.990 551.938, 429.993 550.504, 430.963 548.768 C 432.410 546.179, 432.354 545.900, 429.894 543.439 C 427.872 541.417, 425.772 540.647, 420.399 539.955 C 410.955 538.740, 372.732 537.964, 366.133 538.854 M 230.347 669.027 C 213.454 672.071, 199.673 682.428, 192.587 697.407 C 186.420 710.444, 185.367 731.805, 190.236 745.120 C 193.616 754.361, 196.923 759.596, 203.536 766.175 C 210.472 773.075, 218.702 777.618, 227.730 779.531 C 254.135 785.126, 280.471 774.258, 290.456 753.645 C 295.516 743.198, 295.524 743.245, 288 738.880 C 280.792 734.698, 280 734.438, 279.999 736.250 C 279.999 736.938, 278.666 740.317, 277.037 743.760 C 267.094 764.778, 241.773 772.398, 223.195 759.962 C 212.578 752.856, 206.287 741.747, 205.266 728.302 C 203.858 709.763, 212.464 693.062, 227 686.125 C 231.804 683.832, 233.768 683.500, 242.524 683.500 C 251.776 683.500, 253.045 683.745, 259.024 686.693 C 266.090 690.177, 272.617 696.018, 275.570 701.500 L 277.455 705 284.727 705 L 292 705 292 687.500 L 292 670 285 670 L 278 670 278 674.500 C 278 676.975, 277.790 679, 277.534 679 C 277.278 679, 274.241 677.462, 270.784 675.582 C 267.328 673.703, 262.025 671.438, 259 670.550 C 252.252 668.569, 237.300 667.774, 230.347 669.027 M 306 676.454 L 306 682.909 312.750 683.204 L 319.500 683.500 319.761 724.750 L 320.022 766 313.011 766 L 306 766 306 772.500 L 306 779 327 779 L 348 779 348 772.500 L 348 766 341.500 766 L 335 766 335 745.068 L 335 724.136 337.911 722.063 C 343.476 718.101, 351.410 715.020, 356.076 715.010 C 359.708 715.002, 361.151 715.532, 363.076 717.579 L 365.500 720.158 365.793 749.579 L 366.085 779 380.043 779 L 394 779 394 772.500 L 394 766 387.500 766 L 381 766 381 743.549 C 381 716.826, 380.220 711.991, 375.079 706.846 C 366.816 698.577, 352.639 699.416, 338.250 709.026 L 335 711.196 335 690.598 L 335 670 320.500 670 L 306 670 306 676.454 M 573 676.500 L 573 683 580 683 L 587 683 587 724.500 L 587 766 580 766 L 573 766 573 772.500 L 573 779 594 779 L 615 779 615 772.500 L 615 766 608.500 766 L 602 766 602 753.760 L 602 741.520 620.760 760.260 L 639.519 779 649.760 779 L 660 779 660 772.500 L 660 766 653.236 766 L 646.472 766 633.145 752.645 L 619.818 739.291 633.867 727.645 L 647.916 716 653.958 716 L 660 716 660 709.500 L 660 703 639 703 L 618 703 618 709.450 L 618 715.900 623.600 716.200 L 629.200 716.500 615.850 727.141 L 602.500 737.783 602.237 703.891 L 601.974 670 587.487 670 L 573 670 573 676.500 M 517.804 702.864 C 495.138 710.371, 484.795 736.397, 495.331 759.411 C 498.503 766.339, 506.029 774.474, 512.126 777.564 C 521.839 782.486, 537.113 782.698, 547.606 778.056 C 554.673 774.930, 565 764.048, 565 759.728 C 565 758.589, 554.141 752.408, 553.535 753.202 C 553.410 753.366, 552.197 755.170, 550.838 757.211 C 547.690 761.942, 544.216 764.660, 538.939 766.521 C 522.263 772.405, 507.724 760.527, 507.701 741 C 507.688 729.185, 511.901 721.351, 520.401 717.394 C 532.561 711.732, 546.620 717.481, 549.391 729.250 C 550.015 731.901, 550.273 732, 556.519 732 L 563 732 563 717.500 L 563 703 556.500 703 C 550.285 703, 550 703.106, 550 705.428 L 550 707.855 544.204 704.866 C 536.502 700.894, 526.127 700.107, 517.804 702.864 M 399 710 L 399 717 404.424 717 L 409.848 717 410.174 742.250 C 410.452 763.799, 410.751 767.959, 412.214 770.631 C 418.866 782.782, 436.528 783.802, 452.750 772.973 L 456 770.804 456 774.902 L 456 779 470 779 L 484 779 484 772.500 L 484 766 477.500 766 L 471 766 471 734.500 L 471 703 456.454 703 L 441.909 703 442.204 709.750 L 442.500 716.500 449.250 716.796 L 456 717.091 456 737.498 L 456 757.904 451.727 760.843 C 445.541 765.100, 440.170 767.143, 434.666 767.333 C 430.501 767.477, 429.496 767.111, 427.416 764.694 L 425 761.888 425 732.444 L 425 703 412 703 L 399 703 399 710 M 584 804.311 C 569.093 808.623, 562.255 816.703, 561.215 831.234 L 560.731 838 568.245 838 L 575.760 838 576.195 831.987 C 576.870 822.646, 581.744 817.410, 590.757 816.342 C 601.919 815.020, 609.781 821.092, 610.664 831.714 C 611.687 844.012, 603.922 851.455, 590.773 850.782 L 584.046 850.437 584.499 853.969 C 584.748 855.911, 585.233 863.688, 585.578 871.250 L 586.205 885 590.035 885 C 594.548 885, 594.582 884.923, 595.501 872.880 L 596.158 864.260 601.078 863.677 C 624.647 860.886, 634.548 833.397, 619.238 813.257 C 615.336 808.124, 606.016 804.133, 596.500 803.523 C 591.403 803.195, 586.867 803.481, 584 804.311 M 210.204 811.750 L 210.500 818.500 217.044 818.791 L 223.587 819.082 235.827 861.791 C 242.559 885.281, 248.761 906.862, 249.609 909.750 L 251.150 915 258.943 915 L 266.735 915 278.617 873 C 285.153 849.901, 290.754 831.001, 291.065 831 C 291.375 831, 296.977 849.900, 303.512 873 L 315.394 915 323.458 915 L 331.521 915 345.010 867.040 L 358.498 819.080 364.999 818.790 L 371.500 818.500 371.796 811.750 L 372.091 805 351.500 805 L 330.909 805 331.204 811.750 L 331.500 818.500 337.838 818.800 C 342.238 819.008, 344.046 819.467, 343.751 820.300 C 343.517 820.960, 339.119 836.462, 333.977 854.750 C 328.835 873.038, 324.347 888, 324.002 888 C 323.658 888, 319.089 872.587, 313.848 853.750 L 304.319 819.500 310.660 819.204 L 317 818.909 317 811.954 L 317 805 292 805 L 267 805 267 812 L 267 819 273 819 C 276.300 819, 279 819.407, 279 819.905 C 279 821.156, 261.215 885.062, 260.231 887.344 C 259.672 888.643, 256.972 880.657, 251.103 860.344 C 246.519 844.480, 241.952 828.688, 240.955 825.250 L 239.141 819 245.571 819 L 252 819 252 812 L 252 805 230.954 805 L 209.909 805 210.204 811.750 M 375 811.500 L 375 818 381.500 818 L 388 818 388 859.500 L 388 901 381.500 901 L 375 901 375 907.500 L 375 914 396 914 L 417 914 417 907.500 L 417 901 410 901 L 403 901 403 880.551 L 403 860.102 406.257 857.617 C 411.788 853.399, 420.145 850.020, 425.076 850.010 C 428.708 850.002, 430.151 850.532, 432.076 852.579 L 434.500 855.158 434.806 884.579 L 435.111 914 449.056 914 L 463 914 463 907.500 L 463 901 456.600 901 L 450.200 901 449.803 875.750 C 449.366 847.904, 448.933 845.646, 443.091 840.730 C 434.826 833.776, 418.378 835.265, 407.313 843.969 C 405.892 845.086, 404.341 846, 403.865 846 C 403.389 846, 403 836.775, 403 825.500 L 403 805 389 805 L 375 805 375 811.500 M 501 836.872 C 486.867 839.978, 475.324 850.742, 471.433 864.445 C 468.857 873.517, 469.833 885.908, 473.789 894.363 C 489.088 927.056, 539.380 922.354, 548.489 887.380 C 551.131 877.237, 550.007 865.979, 545.447 856.924 C 542.147 850.370, 532.345 841.651, 525.285 838.988 C 519.047 836.636, 506.895 835.577, 501 836.872 M 499.252 853.104 C 494.240 855.585, 490.432 859.816, 487.723 865.913 C 485.336 871.286, 485.665 883.588, 488.333 888.703 C 495.919 903.251, 516.145 906.190, 527.136 894.342 C 535.654 885.159, 536.253 869.753, 528.487 859.572 C 522.417 851.613, 508.489 848.532, 499.252 853.104 M 580 904.500 L 580 914 590 914 L 600 914 600 904.500 L 600 895 590 895 L 580 895 580 904.500 " stroke="black" fill="none" fill-rule="evenodd"></path>
	<path fill-opacity="0.512" d="M 0 595.501 L 0 1191.002 421.250 1190.751 L 842.500 1190.500 842.751 595.250 L 843.002 -0 421.501 -0 L 0 0 0 595.501 M 0.497 596 C 0.497 923.525, 0.611 1057.512, 0.750 893.750 C 0.889 729.987, 0.889 462.012, 0.750 298.250 C 0.611 134.487, 0.497 268.475, 0.497 596 M 385 105.922 C 379.374 107.035, 368.125 113.491, 359.500 120.555 C 349.573 128.687, 336.210 135.433, 325 137.973 C 296.578 144.411, 289.021 146.424, 284.916 148.651 C 275.406 153.809, 271.189 159.379, 266.449 173.045 C 261.735 186.634, 259.880 189.486, 253.360 193.166 C 250.387 194.844, 247.515 197.038, 246.977 198.043 C 245.556 200.699, 245.779 205.536, 247.516 209.693 C 248.350 211.689, 248.746 214.262, 248.397 215.411 C 248.047 216.560, 242.640 222.489, 236.381 228.587 C 229.593 235.200, 225 240.457, 225 241.615 C 225 245.497, 227.814 247.906, 233.180 248.618 L 238.288 249.296 233.144 254.050 C 229.549 257.373, 228 259.570, 228 261.346 C 228 264.654, 231.411 267, 236.223 267 C 238.300 267, 240 267.216, 240 267.480 C 240 267.744, 237.353 273.257, 234.118 279.730 C 230.883 286.204, 225.077 299.375, 221.215 309 C 217.353 318.625, 212.124 330.612, 209.596 335.638 C 203.688 347.384, 203.437 351.940, 208.376 357.851 C 210.689 360.620, 212.416 364.349, 213.861 369.696 C 215.020 373.988, 216.894 380.127, 218.024 383.338 C 220.362 389.980, 220.174 391.055, 215.433 398.100 C 211.493 403.954, 210.893 409.411, 213.795 412.995 C 215.535 415.144, 215.513 415.366, 213.066 420.311 C 209.570 427.374, 209.061 437.100, 211.784 444.800 C 212.892 447.935, 214.107 452.279, 214.483 454.453 C 215.505 460.361, 218.393 465.295, 223.414 469.715 L 227.911 473.673 225.868 477.802 C 223.443 482.703, 224.021 487.168, 227.411 489.725 L 229.656 491.418 227.328 494.849 C 223.333 500.736, 224.173 502.668, 235.196 512.931 C 243.979 521.109, 243.790 520.714, 252.542 549.136 C 260.421 574.723, 260.976 580.151, 258.185 604.273 C 256.961 614.848, 255.459 628.450, 254.848 634.500 C 254.236 640.550, 252.895 647.654, 251.868 650.287 C 250.840 652.920, 250 655.454, 250 655.918 C 250 656.678, 257.436 659, 259.871 659 C 264.089 659, 270.561 612.980, 270.419 584 L 270.338 567.500 263.653 545.744 C 255.337 518.679, 253.257 514.226, 245.134 506.099 L 238.736 499.699 242.868 496.266 C 245.939 493.716, 247 492.103, 247 489.988 C 247 487.265, 244.816 484, 242.994 484 C 242.519 484, 240.993 483.568, 239.604 483.040 C 237.197 482.124, 237.146 481.947, 238.533 479.290 C 241.377 473.837, 239.780 467.730, 234.550 464.062 C 229.021 460.185, 226 455.883, 226 451.889 C 226 449.706, 225.020 446.026, 223.822 443.710 C 220.515 437.318, 220.803 430.910, 224.757 422.908 C 228.166 416.006, 228.371 411.383, 225.379 408.900 C 223.437 407.288, 223.598 406.629, 227.164 401.569 C 231.387 395.579, 232.085 388.294, 229.211 380.227 C 228.088 377.077, 225.943 370.103, 224.443 364.730 C 222.376 357.324, 220.987 354.247, 218.707 352.018 L 215.698 349.076 221.279 337.788 C 224.348 331.580, 229.415 319.975, 232.539 312 C 235.663 304.025, 241.409 291.024, 245.309 283.109 C 253.185 267.125, 253.872 263.622, 249.954 259.451 L 247.509 256.848 251.723 252.918 C 256.941 248.050, 257.994 246.111, 256.938 243.315 C 255.935 240.661, 253.090 239.024, 249.316 238.930 C 242.828 238.768, 242.738 237.756, 248.782 232.919 C 256.620 226.645, 260.405 219.648, 259.746 212.652 C 259.479 209.818, 258.966 206.807, 258.604 205.961 C 258.146 204.886, 259.269 203.491, 262.330 201.333 C 268.904 196.699, 271.787 192.208, 276.162 179.787 C 283.184 159.854, 286.338 157.685, 317.211 151.567 C 338.402 147.367, 349.111 142.943, 361.811 133.142 C 375.676 122.442, 378.455 120.745, 378.858 122.734 C 379.682 126.806, 381.070 127.295, 389.983 126.654 C 394.667 126.317, 407.725 124.656, 419 122.964 C 443.101 119.347, 468.441 118.052, 478.206 119.938 C 486.852 121.609, 497.364 126.841, 504.343 132.947 C 507.556 135.759, 512.506 139.227, 515.343 140.652 C 523.793 144.900, 553.285 161.174, 556.226 163.212 C 557.725 164.251, 559.859 167.153, 560.968 169.661 C 562.444 172.998, 568.684 179.888, 584.243 195.360 C 595.934 206.987, 607.391 218.786, 609.701 221.580 L 613.902 226.661 611.375 230.213 L 608.847 233.765 611.559 239.133 C 613.050 242.085, 615.109 245.573, 616.135 246.885 C 618.507 249.919, 618.480 251.141, 615.973 254.031 C 611.251 259.475, 612.092 265.185, 620.025 281.552 C 625.456 292.756, 629 302.827, 629 307.055 C 629 307.954, 629.946 309.546, 631.102 310.593 C 635.472 314.547, 636.382 317.886, 636.530 330.500 C 636.696 344.602, 637.823 347.859, 646.048 358 C 648.948 361.575, 652.582 367.200, 654.123 370.500 C 659.432 381.864, 661.496 403.031, 658.524 415.634 C 656.737 423.210, 652.351 433.335, 651.171 432.606 C 650.690 432.308, 649.517 430.025, 648.565 427.531 C 646.564 422.292, 643.791 421.023, 639.355 423.316 C 635.394 425.365, 633.550 427.782, 632.115 432.807 C 630.676 437.847, 627.878 441, 624.844 441 C 621.832 441, 616.579 445.255, 614.728 449.194 C 613.873 451.012, 612.200 457.225, 611.009 463 C 607.885 478.155, 606.007 483.708, 604.612 481.908 C 602.710 479.453, 598.185 477, 595.558 477 C 589.826 477, 588.739 485.629, 592.976 497.500 C 595.948 505.825, 596.301 510.274, 594.539 517.179 C 591.557 528.862, 582.294 541.307, 573.135 545.934 C 566.601 549.236, 564.289 551.506, 563.045 555.843 C 561.352 561.747, 563.444 565.645, 573.852 575.974 C 584.505 586.546, 589.724 589.764, 605.449 595.456 C 615.156 598.970, 651.714 614.685, 653.303 616.027 C 654.172 616.762, 639.205 628.508, 626.790 636.836 C 614.739 644.919, 611.701 652.158, 615.572 663.562 C 616.943 667.599, 616.985 669.591, 615.900 679.091 C 615.216 685.085, 614.949 690.282, 615.306 690.639 C 615.664 690.997, 618.167 691.502, 620.870 691.762 L 625.785 692.234 626.356 688.367 C 629.207 669.073, 629.263 666.174, 626.899 660.471 L 624.624 654.981 626.653 652.240 C 627.769 650.733, 630.666 648.186, 633.091 646.580 C 645.023 638.676, 663.713 623.925, 664.790 621.561 C 666.583 617.627, 666.260 612.600, 664.034 609.770 C 661.559 606.624, 621.399 588.317, 607.500 584 C 598.486 581.200, 589.514 575.514, 581.750 567.682 C 577.487 563.382, 574 559.507, 574 559.071 C 574 558.635, 576.626 556.879, 579.836 555.168 C 591.448 548.979, 603.113 532.899, 606.102 518.960 C 607.202 513.831, 606.857 502.906, 605.448 498.250 C 604.901 496.444, 605.158 496, 606.749 496 C 612.790 496, 617.783 486.859, 621.498 469 C 624.055 456.706, 625.913 452, 628.207 452 C 631.537 452, 637.803 447.695, 639.898 443.968 L 642.164 439.937 645.617 442.968 C 651.829 448.423, 657.330 446.430, 662.859 436.723 C 669.793 424.547, 672.662 408.666, 670.947 391.954 C 669.152 374.458, 665 362.989, 656.831 352.960 C 648.457 342.679, 648.556 342.956, 647.942 328.044 C 647.371 314.190, 646.411 310.534, 642.023 305.500 C 641.064 304.400, 639.544 300.492, 638.645 296.815 C 637.746 293.139, 634.308 284.640, 631.005 277.929 C 627.702 271.218, 625 264.899, 625 263.888 C 625 262.876, 625.898 260.575, 626.996 258.774 C 629.904 254.004, 629.613 247.772, 626.193 241.581 C 624.051 237.705, 623.549 235.789, 624.075 233.500 C 624.453 231.850, 624.817 228.345, 624.882 225.712 L 625 220.923 612.498 207.556 C 605.621 200.204, 593.953 188.382, 586.569 181.284 C 575.825 170.957, 572.651 167.267, 570.681 162.813 C 567.646 155.951, 566.183 154.911, 538.500 139.945 C 526.442 133.426, 514.732 126.308, 511 123.229 C 503.689 117.197, 493.662 112.032, 484 109.323 C 473.336 106.332, 448.803 106.943, 422.199 110.862 C 396.746 114.611, 397 114.600, 397 111.955 C 397 109.375, 392.674 104.963, 390.295 105.115 C 389.308 105.178, 386.925 105.542, 385 105.922 M 345 216.722 C 344.175 217.032, 342.174 218.215, 340.553 219.351 C 338.213 220.991, 335.417 221.546, 326.993 222.043 C 317.874 222.580, 315.633 223.075, 311.076 225.555 C 304.505 229.131, 300.025 234.497, 295.595 244.095 C 288.296 259.911, 287.076 272.961, 289.867 305.385 C 291.188 320.727, 290.873 333.468, 289.014 339.951 C 288.547 341.580, 288.390 343.776, 288.666 344.831 C 289.124 346.580, 290.108 346.274, 299.834 341.352 C 312.407 334.990, 321.199 332.554, 328.984 333.277 C 332.018 333.559, 348 337.912, 364.500 342.950 C 397.825 353.126, 399.695 354.091, 397.936 360.224 C 397.421 362.019, 397 365.802, 397 368.633 C 397 376.078, 395.378 377.467, 385 378.910 C 369.595 381.052, 370.210 380.825, 368.913 384.853 C 368.268 386.859, 367.317 389.033, 366.801 389.686 C 365.670 391.113, 355.233 393.569, 341.693 395.594 C 332.685 396.941, 331.300 396.928, 326.878 395.459 C 324.195 394.568, 322 393.236, 322 392.499 C 322 390.786, 324.935 390.184, 338.540 389.109 C 346.178 388.505, 351.177 387.549, 354.759 386.008 C 361.968 382.907, 362.628 381.812, 358.712 379.443 C 355.972 377.786, 353.663 377.507, 343 377.547 C 328.490 377.602, 324.005 378.652, 314.833 384.140 C 311.160 386.338, 306.771 388.169, 305.060 388.217 C 301.401 388.321, 297.473 385.070, 296.528 381.155 C 296.176 379.695, 294.759 376.316, 293.380 373.647 C 292.001 370.978, 291.127 368.540, 291.438 368.229 C 291.748 367.918, 294.589 367.493, 297.751 367.285 C 300.913 367.076, 305.969 366.176, 308.986 365.285 C 312.617 364.213, 318.567 363.637, 326.583 363.583 C 339.410 363.495, 342 362.683, 342 358.746 C 342 355.770, 336.119 350.776, 329.934 348.500 C 325.996 347.051, 322.023 346.500, 315.500 346.500 C 304.416 346.501, 299.866 348.382, 296.905 354.186 C 294.471 358.956, 292.884 359.649, 287.609 358.241 C 284.604 357.439, 283.340 357.450, 282.826 358.282 C 281.888 359.800, 277.284 379, 276.059 386.500 C 270.985 417.587, 270.915 441.538, 275.846 459.500 C 280.529 476.561, 282.772 482.176, 286.421 485.986 C 288.273 487.919, 290.700 491.324, 291.814 493.553 C 294.044 498.016, 297.323 500, 302.465 500 C 308.850 500, 309.137 500.413, 308.398 508.563 C 307.745 515.775, 307.782 515.935, 310.790 518.944 C 316.073 524.227, 319.663 523.028, 326.274 513.769 C 335.464 500.897, 346.365 492.868, 361.567 487.772 C 373.917 483.632, 374.662 482.667, 372.546 473.543 C 370.625 465.258, 370.627 464.516, 372.571 462.571 C 374.958 460.185, 378.489 460.657, 387 464.500 C 392.637 467.045, 396.158 468, 399.908 468 C 409.082 468, 417.017 463.048, 419.044 456.057 C 420.825 449.918, 421.419 427.894, 420.035 419.318 C 418.485 409.706, 418.469 391.203, 420.002 379.926 C 422.612 360.726, 429.812 353.802, 450.651 350.452 C 456.068 349.581, 462.637 348.411, 465.249 347.852 L 469.999 346.835 469.386 340.167 L 468.773 333.500 473.547 327.029 C 483.625 313.369, 487.334 302.354, 487.364 286 C 487.378 277.926, 486.981 274.739, 485.643 272.207 C 483.243 267.663, 479.693 266.464, 474.506 268.445 C 468.241 270.837, 466.173 270.438, 462.134 266.060 C 454.493 257.776, 450.158 255.260, 435.162 250.409 C 424.199 246.862, 419.076 244.601, 413.397 240.803 C 407.845 237.089, 401.747 234.363, 389.235 230.001 C 380.031 226.792, 367.400 222.329, 361.167 220.083 C 349.960 216.045, 347.925 215.622, 345 216.722 M 491.260 337.941 C 487.601 338.537, 481.975 342.177, 482.012 343.924 C 482.019 344.241, 483.501 345.456, 485.306 346.624 L 488.587 348.748 501.544 346.789 C 517.542 344.370, 521.289 342.431, 517.429 338.571 C 516.187 337.330, 513.720 337.026, 505.679 337.125 C 500.080 337.194, 493.592 337.561, 491.260 337.941 M 454.750 384.261 C 450.488 384.799, 447 385.644, 447 386.139 C 447 386.634, 448.061 389.651, 449.357 392.842 C 451.406 397.884, 452.671 402.465, 454.576 411.750 C 455.343 415.486, 452.391 414.415, 449.068 409.750 C 447.403 407.413, 444.930 404.172, 443.572 402.549 L 441.104 399.597 439.934 402.549 C 439.291 404.172, 438.770 408.012, 438.776 411.081 C 438.790 417.943, 441.246 423.104, 447.361 429.119 C 452.220 433.897, 473 470.014, 473 473.679 C 473 474.807, 472.100 476.874, 471 478.273 C 467.189 483.118, 468.094 484.798, 481.135 497.075 C 494.721 509.865, 495.112 510.167, 496.795 509.127 C 497.702 508.566, 497.480 506.848, 495.891 502.142 L 493.783 495.901 497.321 490.700 C 499.268 487.840, 503.099 482.266, 505.835 478.312 C 516.778 462.501, 518.846 447.545, 513.685 421.529 C 512.532 415.721, 512.377 415.510, 508 413.803 C 505.525 412.838, 496.525 410.159, 488 407.850 C 474.771 404.268, 472.024 403.180, 469.250 400.426 C 465.874 397.075, 464.984 394, 467.390 394 C 468.154 394, 473.187 394.907, 478.575 396.015 C 491.415 398.657, 492.502 397.716, 484.861 390.568 C 476.807 383.034, 472.171 382.063, 454.750 384.261 M 650.565 408.895 C 650.047 409.734, 651.601 419.935, 652.364 420.697 C 652.556 420.890, 653.476 420.754, 654.408 420.397 C 655.660 419.917, 655.959 418.994, 655.552 416.873 C 655.248 415.293, 654.739 412.650, 654.421 411 C 653.868 408.142, 651.746 406.983, 650.565 408.895 M 433.073 440.635 C 430.863 443.444, 430.337 448.893, 431.979 451.961 C 432.517 452.967, 434.419 454.299, 436.205 454.922 C 438.960 455.882, 439.834 455.768, 441.976 454.171 C 443.364 453.135, 444.623 451.661, 444.773 450.894 C 445.156 448.937, 438.135 438, 436.496 438 C 435.753 438, 434.212 439.186, 433.073 440.635 M 351.792 459.550 C 345.156 463.152, 335.704 486.673, 340.250 488.274 C 342.502 489.067, 359.845 461.176, 358.477 458.963 C 357.634 457.600, 354.951 457.835, 351.792 459.550 M 364.803 538.725 C 362.117 539.008, 360.272 540.065, 358.053 542.592 C 355.310 545.716, 355 546.739, 355 552.651 C 355 559.005, 355.078 559.210, 357.250 558.577 C 364.256 556.535, 372.326 555.766, 398.364 554.662 L 427.227 553.437 429.668 550.600 C 435.543 543.769, 430.393 540.318, 412.355 538.999 C 399.917 538.089, 372.356 537.930, 364.803 538.725 M 227.362 669.428 C 217.823 671.605, 210.208 675.830, 202.897 683 C 191.992 693.697, 187 706.870, 187 724.950 C 187 742.191, 192.011 755.028, 203.024 766 C 213.427 776.364, 225.188 781, 241.074 781 C 253.031 781, 259.167 779.668, 268.633 775.016 C 278.500 770.167, 286.821 762.170, 291.019 753.500 C 296.102 743.004, 296.105 743.018, 288.179 738.737 C 284.374 736.682, 281.038 735, 280.766 735 C 280.494 735, 279.462 737.138, 278.472 739.750 C 274.376 750.564, 268.173 757.411, 258 762.347 C 252.147 765.186, 250.605 765.496, 242.500 765.456 C 234.439 765.417, 232.872 765.089, 227.484 762.310 C 220.136 758.520, 212.713 750.799, 209.344 743.440 C 201.428 726.150, 205.384 704.162, 218.579 692.101 C 235.328 676.794, 263.623 681.624, 275.557 701.828 C 277.389 704.929, 277.594 705, 284.716 705 L 292 705 292 687.500 L 292 670 284.500 670 L 277 670 277 674.478 L 277 678.956 272.250 675.942 C 269.637 674.284, 264.575 672.004, 261 670.874 C 252.547 668.202, 235.873 667.485, 227.362 669.428 M 306 677 L 306 684 312.500 684 L 319 684 319 725 L 319 766 312.500 766 L 306 766 306 773 L 306 780 327 780 L 348 780 348 773 L 348 766 341.500 766 L 335 766 335 745.086 L 335 724.172 340.204 720.969 C 350.666 714.532, 357.996 713.373, 362.694 717.412 L 365.500 719.824 365.817 749.912 L 366.134 780 380.067 780 L 394 780 394 773 L 394 766 387.561 766 L 381.123 766 380.811 740.250 C 380.534 717.318, 380.291 714.080, 378.594 710.661 C 372.901 699.196, 355.604 697.795, 340.337 707.561 L 335 710.975 335 690.488 L 335 670 320.500 670 L 306 670 306 677 M 573 677 L 573 684 580 684 L 587 684 587 725 L 587 766 580 766 L 573 766 573 773 L 573 780 594 780 L 615 780 615 773 L 615 766 608.500 766 L 602 766 602 753.760 L 602 741.519 621.259 760.760 L 640.519 780 650.259 780 L 660 780 660 773 L 660 766 653.236 766 L 646.472 766 633.185 752.685 L 619.898 739.371 634.031 727.685 L 648.164 716 654.082 716 L 660 716 660 709.500 L 660 703 639 703 L 618 703 618 709.450 L 618 715.900 623.478 716.200 L 628.956 716.500 615.478 727.214 L 602 737.929 602 703.964 L 602 670 587.500 670 L 573 670 573 677 M 518.286 702.392 C 507.493 705.915, 497.714 714.908, 493.921 724.798 C 485.890 745.740, 495.732 771.637, 514.538 779.047 C 519.385 780.957, 522.369 781.397, 530.500 781.400 C 541.233 781.404, 546.082 779.957, 554.265 774.307 C 557.551 772.038, 566 761.053, 566 759.050 C 566 758.652, 563.188 757.109, 559.750 755.620 C 554 753.128, 553.420 753.047, 552.500 754.610 C 546.566 764.689, 535.292 769.753, 524.929 766.995 C 514.842 764.310, 508.995 755.871, 508.215 742.873 C 507.600 732.629, 509.639 726.510, 515.450 721.153 C 526.537 710.933, 543.475 714.202, 548.571 727.547 L 550.272 732 557.136 732 L 564 732 564 717.500 L 564 703 557 703 C 550.667 703, 550 703.190, 550 705 C 550 707.531, 549.964 707.527, 543.717 704.329 C 537.402 701.097, 525.122 700.161, 518.286 702.392 M 399 710 L 399 717 404.439 717 L 409.877 717 410.189 742.750 C 410.491 767.772, 410.566 768.607, 412.851 772.281 C 416.384 777.965, 421.901 780.449, 431.052 780.477 C 437.895 780.498, 439.350 780.124, 446.552 776.500 C 450.923 774.300, 454.837 772.350, 455.250 772.167 C 455.663 771.983, 456 773.671, 456 775.917 L 456 780 470 780 L 484 780 484 773 L 484 766 477.500 766 L 471 766 471 734.500 L 471 703 456.500 703 L 442 703 442 710 L 442 717 449 717 L 456 717 456 737.396 L 456 757.792 451.238 760.847 C 441.181 767.301, 432.532 768.870, 427.861 765.090 L 425.500 763.179 425.208 733.090 L 424.916 703 411.958 703 L 399 703 399 710 M 582.929 804.367 C 568.875 808.157, 561 818.316, 561 832.659 L 561 838 568.500 838 L 576 838 576 833.712 C 576 827.915, 579.613 821.057, 584 818.528 C 588.761 815.784, 598.227 815.779, 602.819 818.519 C 611.991 823.993, 613.454 837.543, 605.752 845.681 C 602.109 849.530, 594.975 851.523, 588.384 850.535 L 583.838 849.853 584.445 859.177 C 584.778 864.304, 585.305 872.212, 585.615 876.750 L 586.180 885 590.494 885 L 594.808 885 595.514 874.628 L 596.221 864.257 601.542 863.708 C 611.465 862.684, 619.266 857.231, 623.686 848.230 C 626.101 843.312, 626.500 841.295, 626.500 834 C 626.500 826.707, 626.101 824.687, 623.689 819.776 C 622.143 816.627, 619.012 812.454, 616.731 810.502 C 609.111 803.979, 594.322 801.295, 582.929 804.367 M 210 811.954 L 210 818.909 216.698 819.204 L 223.396 819.500 236.651 865.500 C 243.941 890.800, 250.161 912.513, 250.472 913.750 C 250.999 915.843, 251.583 916, 258.850 916 L 266.662 916 274.803 887.250 C 279.280 871.438, 284.617 852.538, 286.662 845.250 C 288.707 837.962, 290.650 832, 290.980 832 C 291.310 832, 296.962 850.788, 303.540 873.750 L 315.500 915.500 323.265 915.792 C 329.967 916.045, 331.124 915.839, 331.717 914.294 C 332.095 913.309, 338.314 891.577, 345.537 866.002 L 358.669 819.500 365.334 819.204 L 372 818.909 372 811.954 L 372 805 351.500 805 L 331 805 331 811.954 L 331 818.909 337.396 819.204 L 343.793 819.500 334.146 853.733 C 328.841 872.562, 324.275 887.969, 324 887.972 C 323.506 887.976, 304.863 821.200, 304.953 819.750 C 304.979 819.337, 307.700 819, 311 819 L 317 819 317 812 L 317 805 291.500 805 L 266 805 266 812 L 266 819 272.500 819 C 276.075 819, 279 819.242, 279 819.537 C 279 820.683, 260.741 885.574, 260.073 886.798 C 259.477 887.893, 240 823.124, 240 820.047 C 240 819.434, 242.486 819, 246 819 L 252 819 252 812 L 252 805 231 805 L 210 805 210 811.954 M 374.204 811.750 L 374.500 818.500 381.250 818.796 L 388 819.091 388 860.046 L 388 901 380.954 901 L 373.909 901 374.204 907.750 L 374.500 914.500 395.750 914.770 L 417 915.040 417 908.020 L 417 901 410.500 901 L 404 901 404 880.104 L 404 859.208 408.793 856.133 C 418.160 850.122, 426.845 848.435, 431.020 851.815 C 434.287 854.460, 434.873 860.062, 434.940 889.278 L 435 915.056 448.750 914.778 L 462.500 914.500 462.796 907.750 L 463.091 901 456.546 901 L 450 901 449.976 877.750 C 449.951 852.832, 449.464 848.760, 445.889 843.544 C 442.719 838.917, 438.856 836.888, 432.042 836.270 C 424.234 835.562, 417.225 837.409, 410.001 842.078 L 404 845.956 404 825.478 L 404 805 388.954 805 L 373.909 805 374.204 811.750 M 496.909 837.840 C 486.314 841.337, 477.839 848.853, 473.101 858.954 C 470.752 863.962, 470.500 865.664, 470.500 876.500 C 470.500 887.744, 470.685 888.877, 473.431 894.478 C 485.388 918.870, 518.982 924.456, 538.414 905.282 C 545.553 898.238, 549.139 889.967, 549.757 879.119 C 550.820 860.480, 542.817 846.869, 526.336 839.281 C 518.589 835.715, 505.316 835.065, 496.909 837.840 M 499.278 853.549 C 481.448 862.434, 481.496 889.963, 499.357 899.215 C 505.702 902.501, 515.187 902.253, 521.353 898.639 C 530.184 893.464, 534.966 883.337, 533.565 872.777 C 531.274 855.511, 514.367 846.029, 499.278 853.549 M 580.214 904.750 L 580.500 914.500 590.250 914.786 L 600 915.072 600 905.036 L 600 895 589.964 895 L 579.928 895 580.214 904.750 " stroke="black" fill="none" fill-rule="evenodd"></path>
	<path fill-opacity="0.968" d="M 0 595.001 L 0 1190.002 421.250 1189.751 L 842.500 1189.500 842.751 594.750 L 843.002 0 421.501 0 L 0 0 0 595.001 M 0.497 595.500 C 0.497 922.750, 0.611 1056.476, 0.750 892.668 C 0.889 728.860, 0.889 461.110, 0.750 297.668 C 0.611 134.226, 0.497 268.250, 0.497 595.500 M 383.363 105.953 C 378.495 107.114, 367.743 113.498, 359.536 120.100 C 344.685 132.047, 335.783 135.931, 312.862 140.463 C 280.856 146.792, 273.066 152.289, 265.985 173.544 C 262.377 184.374, 259.824 188.577, 254.976 191.670 C 245.371 197.797, 243.688 200.923, 246.443 207.519 C 249.598 215.070, 248.600 217.680, 239.770 224.969 C 223.059 238.764, 220.519 247.575, 232.911 248.765 L 238.157 249.270 233.079 253.712 C 229.267 257.046, 228 258.846, 228 260.923 C 228 264.631, 230.857 267, 235.329 267 C 237.348 267, 239 267.382, 239 267.849 C 239 268.315, 236.134 274.728, 232.630 282.099 C 229.127 289.469, 223.773 301.800, 220.732 309.500 C 217.690 317.200, 212.907 328.185, 210.101 333.911 C 206.323 341.623, 205 345.461, 205 348.711 C 205 353.368, 207.028 358.357, 209.479 359.728 C 211.005 360.582, 219 386.281, 219 390.331 C 219 391.582, 217.623 394.478, 215.941 396.766 C 211.305 403.069, 210.615 406.572, 213.026 411.553 L 215.030 415.693 212.368 421.508 C 208.961 428.950, 208.780 437.964, 211.879 446 C 213.045 449.025, 214.009 452.625, 214.021 454 C 214.060 458.327, 217.522 464.328, 222.829 469.267 L 227.950 474.034 225.979 477.267 C 222.984 482.179, 223.739 487.592, 227.841 490.616 C 229.167 491.594, 229.084 492.077, 227.178 494.501 C 223.027 499.777, 224.054 502.541, 233.484 511.468 C 243.583 521.029, 244.526 522.923, 252.484 549.611 C 259.049 571.632, 260.414 580.938, 259.017 594.166 C 255.310 629.259, 252.920 647.085, 251.368 651.214 C 250.393 653.807, 249.865 656.198, 250.194 656.527 C 250.524 656.857, 253.074 657.728, 255.862 658.464 L 260.931 659.801 262.966 654.360 C 264.377 650.590, 265.914 640.569, 267.975 621.710 C 269.610 606.745, 271.202 592.250, 271.514 589.500 C 272.457 581.173, 270.303 567.536, 265.450 551.099 C 255.967 518.984, 253.542 513.640, 244.625 505.207 L 239.058 499.942 242.987 496.393 C 245.147 494.441, 247.196 491.957, 247.540 490.873 C 248.433 488.059, 245.737 484.505, 241.838 483.358 C 239.314 482.615, 238.587 481.903, 238.855 480.438 C 239.051 479.372, 239.429 476.399, 239.696 473.832 L 240.182 469.163 233.091 462.225 C 226.681 455.954, 226 454.910, 226 451.355 C 226 449.192, 225.100 445.658, 224 443.500 C 220.964 437.545, 221.354 429.847, 225.039 423 C 228.533 416.509, 228.661 414.720, 226.009 409.517 C 224.060 405.695, 224.058 405.566, 225.892 403.555 C 231.818 397.057, 232.430 389.200, 228.068 375.624 C 226.455 370.606, 224.404 363.866, 223.510 360.647 C 222.615 357.427, 220.785 353.694, 219.442 352.351 C 218.099 351.008, 217 349.246, 217 348.435 C 217 347.624, 218.994 342.989, 221.432 338.136 C 223.869 333.283, 228.625 322.383, 232.001 313.915 C 235.377 305.447, 241.483 291.528, 245.570 282.983 C 249.656 274.439, 253 266.650, 253 265.674 C 253 263.287, 250.349 258.294, 248.771 257.710 C 247.986 257.419, 249.507 255.354, 252.750 252.309 C 260.674 244.868, 259.317 239.963, 248.952 238.588 L 243.608 237.879 249.841 232.326 C 253.270 229.272, 256.958 225.042, 258.037 222.927 C 260.165 218.757, 260.646 210.828, 259.029 206.576 C 258.179 204.341, 258.398 203.843, 260.779 202.593 C 264.616 200.579, 270.435 194.218, 272.756 189.500 C 273.838 187.300, 275.938 181.818, 277.421 177.318 C 278.905 172.818, 281.402 167.365, 282.970 165.201 C 287.508 158.935, 292.853 156.967, 322.790 150.539 C 340.933 146.643, 355.365 139.961, 365.693 130.675 C 367.787 128.792, 371.272 126.056, 373.437 124.594 L 377.374 121.936 379.527 124.636 C 381.389 126.971, 382.344 127.312, 386.590 127.160 C 392.101 126.961, 407.844 124.990, 428 121.975 C 445.954 119.290, 468.882 118.332, 477.158 119.922 C 485.435 121.512, 498.210 127.747, 504.500 133.266 C 507.298 135.721, 519.851 143.272, 533 150.409 C 557.837 163.890, 560 165.300, 560 168.015 C 560 171.174, 564.624 176.402, 588.861 200.653 C 602.137 213.938, 613 225.525, 613 226.403 C 613 227.282, 612.100 228.900, 611 230 C 609.900 231.100, 609 232.690, 609 233.533 C 609 235.085, 612.368 241.802, 616.128 247.748 L 618.182 250.996 615.471 254.216 C 613.009 257.142, 612.808 257.989, 613.267 263.469 C 613.664 268.201, 615.090 272.193, 619.887 282 C 623.250 288.875, 626.869 298.027, 627.928 302.337 C 628.988 306.647, 630.497 310.697, 631.281 311.337 C 635.275 314.594, 636 317.260, 636 328.685 C 636 342.577, 637.847 348.191, 645.574 357.792 C 654.699 369.130, 658.251 378.861, 659.520 396 C 660.463 408.745, 657.424 423.935, 652.614 430.514 C 651.322 432.281, 651.070 432.076, 648.864 427.454 C 646.969 423.483, 645.946 422.436, 643.706 422.179 C 638.729 421.608, 634.786 425.113, 632 432.584 C 629.618 438.972, 629.294 439.349, 625.143 440.570 C 616.406 443.141, 613.315 448.303, 610.026 465.812 C 608.857 472.033, 607.423 478.173, 606.838 479.456 L 605.776 481.788 602.248 479.394 C 597.957 476.482, 593.919 476.327, 591.515 478.983 C 590.020 480.635, 589.828 482.015, 590.363 487.237 C 590.716 490.686, 591.946 495.981, 593.097 499.004 C 595.934 506.459, 595.446 516.341, 591.863 524 C 587.362 533.622, 580.462 541.738, 574.014 544.993 C 567.897 548.081, 563.394 552.581, 562.380 556.620 C 561.210 561.282, 564.617 567.238, 573.509 576.075 C 583.842 586.344, 590.500 590.494, 604.644 595.479 C 612.897 598.388, 652.252 615.204, 653.756 616.464 C 654.101 616.754, 634.065 631.617, 626.209 636.900 C 617.212 642.950, 614 647.743, 614 655.116 C 614 658.315, 614.697 662.410, 615.549 664.216 C 616.929 667.144, 616.942 668.745, 615.668 679 C 614.883 685.325, 614.426 690.703, 614.654 690.951 C 614.882 691.199, 617.503 691.670, 620.477 691.997 C 626.858 692.700, 626.306 693.792, 628.053 677 C 629.107 666.863, 629.057 665.041, 627.625 661.628 C 626.731 659.498, 626 656.495, 626 654.954 C 626 651.841, 626.167 651.688, 641.500 640.824 C 647 636.928, 654.371 631.462, 657.880 628.680 C 667.486 621.063, 669.243 614.468, 663.201 608.704 C 660.018 605.666, 632.550 593.147, 612.067 585.398 C 604.129 582.394, 596.029 578.965, 594.067 577.776 C 589.458 574.984, 575 561.038, 575 559.385 C 575 558.688, 577.777 556.637, 581.171 554.828 C 590.806 549.693, 600.909 536.094, 605.498 522.082 C 606.910 517.771, 607.161 514.642, 606.727 506.773 C 606.206 497.315, 606.277 496.845, 608.341 496.047 C 614.282 493.750, 618.134 485.963, 621.517 469.408 C 622.968 462.309, 624.765 455.550, 625.510 454.389 C 626.255 453.227, 628.283 451.993, 630.016 451.647 C 634.209 450.808, 638.679 447.521, 640.552 443.899 L 642.075 440.955 645.382 443.478 C 652.103 448.604, 658.139 445.844, 663.918 435.003 C 671.141 421.451, 673.315 405.807, 670.569 387.137 C 668.125 370.520, 664.397 361.586, 655.490 351 C 649.186 343.508, 648.053 339.962, 647.978 327.500 C 647.908 315.729, 646.804 311.093, 642.802 305.748 C 641.465 303.962, 639.538 299.374, 638.521 295.552 C 637.503 291.731, 634.045 283.269, 630.835 276.748 C 627.626 270.226, 625 264.222, 625 263.405 C 625 262.588, 625.912 260.685, 627.028 259.176 C 630.688 254.226, 630.679 249.747, 626.994 242.488 C 623.870 236.333, 623.768 235.782, 624.799 230.646 C 625.394 227.684, 625.615 224.189, 625.291 222.880 C 624.453 219.496, 611.363 205.411, 585.796 180.382 C 575.296 170.104, 572.132 166.383, 571.175 163.191 C 569.392 157.240, 564.946 154.012, 539.921 140.500 C 527.144 133.601, 515.316 126.465, 512.098 123.713 C 504.746 117.427, 490.413 110.357, 481 108.374 C 470.051 106.068, 446.077 107.085, 420.084 110.958 C 408.855 112.631, 399.068 114, 398.334 114 C 397.600 114, 397 113.161, 397 112.135 C 397 111.109, 396.067 109.084, 394.927 107.635 C 392.745 104.861, 389.761 104.427, 383.363 105.953 M 341.046 218.688 C 337.334 220.912, 335.248 221.394, 328.532 221.576 C 324.099 221.697, 318.585 222.304, 316.278 222.925 C 306.226 225.632, 297.192 236.676, 291.849 252.789 C 288.797 261.994, 288.626 263.308, 288.564 278 C 288.529 286.525, 289.056 300.025, 289.735 308 C 290.892 321.581, 290.554 330.916, 288.522 341.500 C 287.807 345.222, 289.258 347.848, 291.174 346.300 C 291.903 345.710, 296.182 343.361, 300.682 341.080 C 319.191 331.698, 326.139 331.399, 350.500 338.938 C 392.436 351.915, 396.001 353.134, 396.895 354.804 C 397.398 355.744, 397.505 360.390, 397.133 365.171 C 396.223 376.874, 395.698 377.372, 382.563 378.992 C 376.850 379.697, 371.714 380.559, 371.151 380.907 C 370.587 381.255, 369.246 383.593, 368.171 386.102 L 366.215 390.664 358.260 392.383 C 353.884 393.328, 346.174 394.723, 341.125 395.481 C 333.075 396.691, 331.396 396.673, 327.474 395.337 C 323.169 393.870, 321.258 392.409, 322.291 391.376 C 322.561 391.106, 329.148 390.280, 336.929 389.541 C 348.478 388.444, 352.079 387.707, 356.538 385.525 C 359.542 384.055, 362 382.445, 362 381.947 C 362 381.448, 360.107 380.075, 357.794 378.895 C 353.949 376.934, 352.512 376.796, 341.044 377.291 C 326.389 377.924, 323.665 378.618, 314.756 383.992 C 304.980 389.888, 299.462 389.038, 296.940 381.247 C 296.273 379.186, 294.682 375.415, 293.406 372.867 L 291.084 368.233 294.042 367.642 C 295.669 367.316, 298.269 367.304, 299.819 367.614 C 301.496 367.949, 304.231 367.466, 306.569 366.421 C 309.472 365.123, 314.384 364.504, 325.351 364.054 C 338.123 363.531, 340.387 363.191, 341.532 361.625 C 344.095 358.120, 339.705 352.457, 331.632 348.856 C 327.363 346.952, 324.734 346.561, 316 346.533 C 303.748 346.494, 299.669 348.136, 296.751 354.279 C 294.708 358.582, 291.402 359.823, 286.925 357.969 C 285.148 357.233, 283.533 357.082, 283.032 357.606 C 280.944 359.785, 275.843 385.241, 273.435 405.500 C 269.958 434.749, 270.838 445.672, 278.623 469.885 C 281.458 478.703, 283.239 482.444, 286.524 486.476 C 288.856 489.340, 291.069 492.642, 291.441 493.815 C 292.566 497.359, 296.837 500, 301.444 500 C 303.739 500, 306.464 500.619, 307.499 501.375 C 309.244 502.652, 309.283 503.151, 308.040 508.334 C 306.727 513.807, 306.754 513.988, 309.391 517.446 C 314.768 524.496, 318.687 524.128, 324.785 516 C 336.375 500.555, 346.456 492.793, 360.694 488.354 C 365.402 486.886, 370.399 484.701, 371.797 483.498 C 374.270 481.371, 374.307 481.155, 373.169 475.489 C 371.049 464.932, 371.905 461, 376.324 461 C 377.382 461, 381.737 462.575, 386 464.500 C 392.291 467.340, 394.953 467.996, 400.126 467.977 C 408.168 467.947, 415.435 464.317, 418.096 459 C 420.502 454.194, 422.221 433.625, 420.938 425 C 419.159 413.045, 418.688 392.525, 419.956 382.294 C 421.334 371.187, 423.667 364.997, 428.301 360.162 C 433.274 354.974, 438.379 352.923, 452.467 350.451 C 470.419 347.302, 471.238 347.063, 470.512 345.172 C 470.179 344.302, 469.651 341.733, 469.340 339.464 C 468.710 334.866, 469.917 331.870, 474.938 325.568 C 487.572 309.710, 492.536 277.048, 483.497 269.250 C 480.461 266.632, 477.638 266.419, 473.636 268.506 C 468.913 270.969, 467.059 270.298, 459.878 263.523 C 452.023 256.114, 448.665 254.241, 437.500 251.046 C 427.465 248.173, 416.041 242.993, 411.081 239.064 C 408.506 237.025, 400.251 233.604, 385.529 228.476 C 373.567 224.309, 360.852 219.798, 357.271 218.450 C 349.030 215.348, 346.559 215.384, 341.046 218.688 M 489.500 337.713 C 487.417 338.214, 482 342.831, 482 344.106 C 482 344.508, 483.521 345.777, 485.380 346.926 L 488.761 349.015 502.448 346.864 C 510.722 345.563, 516.911 344.077, 518.098 343.106 C 519.921 341.615, 519.948 341.339, 518.474 339.250 C 516.962 337.107, 516.285 337.005, 504.193 337.116 C 497.212 337.180, 490.600 337.449, 489.500 337.713 M 453.500 384.217 C 449.650 384.746, 446.382 385.294, 446.237 385.436 C 446.092 385.577, 447.122 388.289, 448.526 391.462 C 452.529 400.514, 455.306 414, 453.166 414 C 452.708 414, 450.665 411.578, 448.626 408.619 C 444.624 402.808, 441.296 399.370, 440.471 400.195 C 440.187 400.479, 439.448 403.139, 438.829 406.106 C 437.128 414.249, 439.584 421.752, 445.950 427.865 C 449.380 431.159, 453.846 437.943, 461.384 451.310 C 467.218 461.655, 472.277 471.254, 472.625 472.640 C 473.063 474.389, 472.605 476.043, 471.129 478.040 C 467.168 483.396, 467.937 484.842, 481.563 497.671 C 488.473 504.177, 494.436 509.605, 494.813 509.734 C 495.191 509.862, 496.095 509.591, 496.822 509.130 C 497.894 508.451, 497.757 507.113, 496.093 502.046 L 494.042 495.799 497.225 491.149 C 498.975 488.592, 502.388 483.800, 504.810 480.500 C 507.232 477.200, 510.255 472.448, 511.527 469.941 C 514.268 464.539, 517.021 452.026, 516.949 445.292 C 516.861 436.919, 513.452 417.024, 511.828 415.399 C 510.992 414.563, 501.670 411.484, 491.112 408.557 C 480.199 405.531, 471.022 402.428, 469.843 401.367 C 467.728 399.461, 465.589 395.078, 466.386 394.281 C 466.628 394.038, 471.589 394.803, 477.409 395.982 C 488.001 398.126, 490 398.055, 490 395.534 C 490 393.720, 481.075 386.347, 476.632 384.491 C 472.670 382.835, 464.284 382.736, 453.500 384.217 M 650.542 413.750 C 651.311 420.197, 652.104 421.558, 654.545 420.621 C 655.930 420.090, 656.103 419.170, 655.531 415.361 C 654.575 408.984, 654.079 408, 651.821 408 C 650.016 408, 649.912 408.468, 650.542 413.750 M 432.404 440.750 C 429.560 445.035, 429.968 450.716, 433.328 453.606 C 436.837 456.624, 440.040 456.651, 442.826 453.686 C 445.750 450.572, 445.593 449.353, 441.473 443.237 C 437.465 437.284, 435.130 436.644, 432.404 440.750 M 353.418 458.969 C 350.239 460.255, 345.987 465.810, 342.762 472.893 C 339.747 479.514, 338.665 486.988, 340.621 487.683 C 341.238 487.902, 344.428 483.900, 347.712 478.790 C 356.161 465.641, 358.364 461.391, 357.670 459.582 C 356.995 457.824, 356.445 457.744, 353.418 458.969 M 363.256 538.901 C 356.619 540.627, 353.432 546.297, 354.463 554.547 L 355.127 559.866 359.314 558.345 C 363.466 556.837, 375.974 555.881, 410.234 554.455 C 425.877 553.804, 427.132 553.607, 429.484 551.427 C 434.262 546.999, 432.187 542.262, 424.500 540.045 C 419.649 538.646, 367.951 537.681, 363.256 538.901 M 226.272 669.437 C 208.376 673.773, 193.923 687.979, 189.056 706.016 C 186.398 715.866, 186.115 732.431, 188.453 741.257 C 193.384 759.869, 207.347 774.305, 225.500 779.559 C 232.744 781.656, 248.101 781.916, 256 780.075 C 271.544 776.453, 285.208 765.988, 291.480 752.902 C 293.416 748.862, 295 744.798, 295 743.870 C 295 742.372, 283.461 735, 281.116 735 C 280.667 735, 279.075 737.882, 277.578 741.404 C 266.813 766.733, 236.912 773.643, 218.098 755.149 C 209.541 746.739, 206.778 740.177, 206.210 726.923 C 205.680 714.548, 207.252 707.636, 212.443 699.522 C 223.103 682.858, 244.667 678.382, 262.609 689.109 C 268.148 692.420, 275.238 700.023, 276.502 704.008 C 277.059 705.762, 278.022 706, 284.567 706 L 292 706 292 687.456 L 292 668.912 284.750 669.206 L 277.500 669.500 277.189 673.813 C 277.019 676.185, 276.569 677.982, 276.189 677.806 C 275.810 677.630, 272.692 676.022, 269.260 674.234 C 265.828 672.445, 260.203 670.317, 256.760 669.506 C 249.218 667.727, 233.474 667.692, 226.272 669.437 M 305.415 670.362 C 305.127 671.111, 305.029 674.374, 305.196 677.612 L 305.500 683.500 312.250 683.796 L 319 684.091 319 725.046 L 319 766 311.954 766 L 304.909 766 305.204 772.750 L 305.500 779.500 326.750 779.770 L 348 780.040 348 773.020 L 348 766 341.500 766 L 335 766 335 745.211 L 335 724.423 340.484 721.099 C 350.735 714.886, 357.920 713.496, 362.139 716.910 L 364.500 718.821 365 749.160 L 365.500 779.500 379.750 779.777 L 394 780.055 394 773.027 L 394 766 387.500 766 L 381 766 380.956 741.250 C 380.910 715.440, 380.350 711.256, 376.345 706.827 C 372.923 703.043, 367.463 701, 360.790 701.006 C 352.755 701.013, 348.813 702.139, 341.588 706.489 C 338.381 708.420, 335.587 710, 335.379 710 C 335.170 710, 335 700.775, 335 689.500 L 335 669 320.469 669 C 309.129 669, 305.822 669.299, 305.415 670.362 M 573 676.500 L 573 684 580 684 L 587 684 587 725 L 587 766 580 766 L 573 766 573 773.020 L 573 780.040 594.250 779.770 L 615.500 779.500 615.796 772.750 L 616.091 766 609.046 766 L 602 766 602 753.760 L 602 741.519 621.259 760.760 L 640.519 780 650.259 780 L 660 780 660 773 L 660 766 653.736 766 L 647.472 766 634.140 752.640 L 620.808 739.281 626.154 734.717 C 648.038 716.034, 648.029 716.040, 654.250 716.019 L 660 716 660 709.500 L 660 703 638.500 703 L 617 703 617 709.450 L 617 715.900 622.705 716.200 L 628.411 716.500 615.455 726.848 L 602.500 737.197 602.237 703.098 L 601.974 669 587.487 669 L 573 669 573 676.500 M 515.187 703.089 C 507.552 706.104, 498.057 715.301, 494.397 723.227 C 491.730 729.001, 491.500 730.418, 491.500 741.052 C 491.500 752.390, 491.570 752.744, 495.259 760.210 C 502.932 775.735, 515.230 782.797, 532.785 781.757 C 546.664 780.936, 556.123 775.717, 562.913 765.135 C 564.611 762.489, 566 759.885, 566 759.346 C 566 758.808, 563.241 757.049, 559.869 755.438 L 553.739 752.507 552.119 754.962 C 546.367 763.682, 540.588 767, 531.152 767 C 523.194 767, 519.285 765.320, 514.652 759.907 C 507.707 751.793, 505.953 736.881, 510.821 727.347 C 519.263 710.815, 544.297 711.931, 548.730 729.037 L 549.627 732.500 556.564 732.500 L 563.500 732.500 563.777 717.750 L 564.053 703 556.527 703 C 549.758 703, 549 703.194, 549 704.930 C 549 706.734, 548.692 706.687, 544.251 704.205 C 540.196 701.939, 538.113 701.510, 530.001 701.271 C 522.252 701.043, 519.520 701.378, 515.187 703.089 M 399 710 L 399 717 403.897 717 L 408.795 717 409.198 741.250 C 409.620 766.644, 410.202 770.189, 414.788 775.355 C 421.467 782.876, 438.117 782.753, 450.193 775.093 L 454.886 772.116 455.193 775.808 L 455.500 779.500 469.750 779.777 L 484 780.055 484 773.027 L 484 766 477.500 766 L 471 766 471 734.500 L 471 703 456.500 703 L 442 703 442 710 L 442 717 448.500 717 L 455 717 455 737.452 L 455 757.904 450.511 760.992 C 442.751 766.331, 433.617 768.471, 429.039 766.021 C 425.525 764.141, 425 759.565, 425 730.851 L 425 703 412 703 L 399 703 399 710 M 581.324 804.384 C 568.348 808.613, 561.353 817.869, 560.787 831.561 L 560.500 838.500 568.250 838.792 L 576 839.084 576.076 834.792 C 576.215 826.932, 580.180 820.023, 585.772 817.896 C 589.739 816.387, 598.376 816.625, 601.662 818.334 C 608.384 821.830, 611.782 829.597, 610.016 837.429 C 608.002 846.360, 602.190 850.346, 591.284 850.276 L 583.807 850.228 584.449 863.864 C 584.802 871.364, 585.335 879.188, 585.633 881.250 C 586.164 884.917, 586.271 885, 590.470 885 L 594.765 885 595.426 877.250 C 596.566 863.881, 596.318 864.350, 602.597 863.702 C 612.971 862.631, 622.671 854.379, 625.666 844.077 C 627.554 837.583, 627.020 826.546, 624.535 820.683 C 622.124 814.994, 615.628 808.523, 609.727 805.930 C 603.245 803.081, 587.886 802.246, 581.324 804.384 M 210 811.480 L 210 819 216.472 819 L 222.944 819 224.636 824.750 C 225.566 827.913, 231.810 849.625, 238.510 873 L 250.693 915.500 258.756 915.789 L 266.819 916.078 267.847 912.789 C 268.413 910.980, 273.677 892.400, 279.545 871.500 C 285.413 850.600, 290.504 833.191, 290.857 832.814 C 291.211 832.437, 296.840 850.999, 303.367 874.064 L 315.234 916 323.478 916 L 331.723 916 335.311 903.250 C 337.285 896.237, 342.761 876.775, 347.480 860 C 352.200 843.225, 356.735 827.138, 357.558 824.250 L 359.056 819 365.528 819 L 372 819 372 811.500 L 372 804 351.500 804 L 331 804 331 811.500 L 331 819 337.340 819 L 343.681 819 334.090 852.986 C 328.816 871.678, 324.275 886.977, 324 886.983 C 323.623 886.991, 309.385 836.806, 305.350 821.250 C 304.792 819.098, 305.034 819, 310.883 819 L 317 819 317 811.500 L 317 804 291.500 804 L 266 804 266 811.500 L 266 819 272.567 819 C 278.350 819, 279.074 819.209, 278.625 820.750 C 275.169 832.607, 265.413 867.574, 260.978 884 L 259.762 888.500 249.902 854.500 C 244.479 835.800, 240.033 820.163, 240.021 819.750 C 240.010 819.337, 242.945 819, 246.544 819 L 253.088 819 252.794 811.750 L 252.500 804.500 231.250 804.230 L 210 803.960 210 811.480 M 374 811.473 L 374 819 381 819 L 388 819 388 860 L 388 901 381 901 L 374 901 374 908 L 374 915 395.500 915 L 417 915 417 908 L 417 901 410.480 901 L 403.960 901 404.230 879.824 L 404.500 858.647 411.500 854.853 C 420.080 850.201, 425.527 849.187, 429.868 851.432 C 431.591 852.323, 433.096 853.152, 433.213 853.276 C 433.330 853.399, 433.668 867.225, 433.963 884 L 434.500 914.500 448.750 914.777 L 463 915.055 463 908.027 L 463 901 456.500 901 L 450 901 450 877.182 C 450 851.380, 449.118 845.339, 444.754 841.239 C 436.775 833.743, 419.972 834.475, 408.238 842.830 C 406.562 844.024, 404.933 845, 404.616 845 C 404.300 845, 403.920 835.888, 403.771 824.750 L 403.500 804.500 388.750 804.223 L 374 803.947 374 811.473 M 497.286 837.397 C 490.521 839.598, 484.630 843.530, 479.204 849.467 C 464.665 865.376, 466.269 891.992, 482.671 906.982 C 490.493 914.131, 496.990 916.381, 510 916.447 C 519.790 916.496, 520.956 916.284, 527.241 913.307 C 535.587 909.353, 543.207 901.929, 546.812 894.236 C 549.262 889.007, 549.500 887.437, 549.500 876.479 C 549.500 864.915, 549.375 864.205, 546.219 857.794 C 542.351 849.936, 535.117 842.913, 527 839.134 C 522.457 837.019, 519.760 836.526, 511.500 836.300 C 505.032 836.122, 500.011 836.510, 497.286 837.397 M 501.625 852.408 C 482.433 859.551, 480.920 890.006, 499.315 898.910 C 504.596 901.467, 514.643 901.738, 519.456 899.454 C 527.890 895.452, 533.217 886.617, 533.312 876.472 C 533.405 866.621, 529.286 859.010, 521.344 854.356 C 515.956 851.198, 507.199 850.334, 501.625 852.408 M 580 905 L 580 915 590 915 L 600 915 600 905 L 600 895 590 895 L 580 895 580 905 " stroke="black" fill="none" fill-rule="evenodd"></path>
</svg>